/* XPM */
static char *bitcoin48[] = {
/* columns rows colors chars-per-pixel */
"48 48 2 1 ",
"  c #74ADE8",
". c None",
/* pixels */
"................................................",
"................................................",
"......           ..............           ......",
"......           .............            ......",
"......           .............            ......",
"......           .............            ......",
"......           ..............           ......",
"......           ..............           ......",
"......           ..............           ......",
"......           ..............           ......",
"......           ..............           ......",
"......           ..............           ......",
"......           ..............           ......",
"......           ..............           ......",
"......           ..............           ......",
"......           ..............           ......",
"......           ..............           ......",
"......           ..............           ......",
"......            ............            ......",
"......                                    ......",
"......                                    ......",
"......                                    ......",
"......                                    ......",
"......                                    ......",
"......                                    ......",
"......                                    ......",
"......                                    ......",
"......                                    ......",
"......                                    ......",
"......           ..............           ......",
"......           ..............           ......",
"......           ..............           ......",
"......           ..............           ......",
"......           ..............           ......",
".......          ..............           ......",
".........        ..............           ......",
"............     ..............           ......",
"..............   ..............           ......",
"................ ..............           ......",
"...............................           ......",
"...............................           ......",
"..............................            ......",
"..............................            ......",
"..............................            ......",
"...............................           ......",
".................................         ......",
"................................................",
"................................................"
};
