/* XPM */
static char *bitcoin24[] = {
/* columns rows colors chars-per-pixel */
"24 24 99 2 ",
"   c #000DFF",
".  c #000EFF",
"X  c #0012FF",
"o  c #0013FF",
"O  c #0014FF",
"+  c #0015FF",
"@  c #0019FF",
"#  c #001BFF",
"$  c #001CFF",
"%  c #0021FF",
"&  c #0022FF",
"*  c #0024FF",
"=  c #0029FF",
"-  c #002BFF",
";  c #0030FF",
":  c #0031FF",
">  c #0037FF",
",  c #0038FF",
"<  c #0039FF",
"1  c #003FFF",
"2  c #0040FF",
"3  c #0045FF",
"4  c #0046FF",
"5  c #0048FF",
"6  c #004CFF",
"7  c #004DFF",
"8  c #004FFF",
"9  c #0053FF",
"0  c #0054FF",
"q  c #0056FF",
"w  c #005AFF",
"e  c #005BFF",
"r  c #005CFF",
"t  c #005DFF",
"y  c #0061FF",
"u  c #0062FF",
"i  c #0063FF",
"p  c #0064FF",
"a  c #0069FF",
"s  c #006AFF",
"d  c #006BFF",
"f  c #0070FF",
"g  c #0071FF",
"h  c #0072FF",
"j  c #0077FF",
"k  c #0078FF",
"l  c #0079FF",
"z  c #007EFF",
"x  c #007FFF",
"c  c #0086FF",
"v  c #008DFF",
"b  c #0094FF",
"n  c #0095FF",
"m  c #009BFF",
"M  c #009CFF",
"N  c #00A0FF",
"B  c #00A2FF",
"V  c #00A3FF",
"C  c #00A8FF",
"Z  c #00A9FF",
"A  c #00AAFF",
"S  c #00AFFF",
"D  c #00B0FF",
"F  c #00B1FF",
"G  c #00B5FF",
"H  c #00B6FF",
"J  c #00B7FF",
"K  c #00BBFF",
"L  c #00BDFF",
"P  c #00BEFF",
"I  c #00C1FF",
"U  c #00C3FF",
"Y  c #00C4FF",
"T  c #00C8FF",
"R  c #00C9FF",
"E  c #00CAFF",
"W  c #00CDFF",
"Q  c #00CFFF",
"!  c #00D0FF",
"~  c #00D4FF",
"^  c #00D5FF",
"/  c #00D6FF",
"(  c #00DAFF",
")  c #00DBFF",
"_  c #00E0FF",
"`  c #00E1FF",
"'  c #00E2FF",
"]  c #00E6FF",
"[  c #00E7FF",
"{  c #00E8FF",
"}  c #00EBFF",
"|  c #00EDFF",
" . c #00F0FF",
".. c #00F1FF",
"X. c #00F5FF",
"o. c #00F6FF",
"O. c #00F8FF",
"+. c #00F9FF",
"@. c None",
/* pixels */
"@.@.@.@.@.@.@.@.@.@.@.@.@.@.@.@.@.@.@.@.@.@.@.@.",
"@.@.+.o...| [ ` ) ^ Q R U L H D Z B m b v c @.@.",
"@.O.o...| [ ` ) ^ ! R U L J D A B m b v c x l @.",
"@.X...| [ ` ) ^ ! R U L H D Z B m b v c x k h @.",
"@. .| [ ` ) ^ ! E Y P J F A V M n v c x k g d @.",
"@.} { ` ) ^ ! @.@.@.@.@.@.@.@.@.@.c x k g s p @.",
"@.] ' ) ^ ! E @.@.@.@.@.@.@.@.@.@.z k g s u t @.",
"@._ ) ^ ! R U @.@.@.@.@.@.@.@.@.@.j g s i e q @.",
"@.( / ! R U P @.@.@.@.@.@.@.@.@.@.f s i e 0 8 @.",
"@.~ ! R U L J @.@.@.@.@.@.@.@.@.@.a i e 0 7 5 @.",
"@.W R U L H F @.@.@.@.@.@.@.@.@.@.u r 0 7 4 2 @.",
"@.T U L J D A @.@.@.@.@.@.@.@.@.@.w 0 7 4 1 < @.",
"@.I L J D Z V @.@.@.@.@.@.@.@.@.@.0 7 4 1 > : @.",
"@.K J D Z B M @.@.@.@.@.@.@.@.@.@.6 4 1 , ; - @.",
"@.G D Z B m n @.@.@.@.@.@.@.@.@.@.3 1 , ; = * @.",
"@.S A B m b v c z j f a y w 9 6 3 1 , ; = & $ @.",
"@.C V m b v c x k g s i r 0 7 4 1 , ; = & # + @.",
"@.N m b v c x k g s i e 0 7 4 1 , ; = & # o . @.",
"@.@.b v c x k g s i e 0 7 4 1 , ; = & # o   @.@.",
"@.@.@.@.@.@.@.@.@.@.@.@.@.@.@.@.@.% # o   @.@.@.",
"@.@.@.@.@.@.@.@.@.@.@.@.@.@.@.@.@.@ O   @.@.@.@.",
"@.@.@.@.@.@.@.@.@.@.@.@.@.@.@.@.@.X . @.@.@.@.@.",
"@.@.@.@.@.@.@.@.@.@.@.@.@.@.@.@.@.  @.@.@.@.@.@.",
"@.@.@.@.@.@.@.@.@.@.@.@.@.@.@.@.@.@.@.@.@.@.@.@."
};
