/* XPM */
static char *bitcoin24[] = {
/* columns rows colors chars-per-pixel */
"24 24 75 1 ",
"  c #43B8F3",
". c #4EBDF3",
"X c #50BDF3",
"o c #51BEF3",
"O c #51BFF4",
"+ c #52BFF4",
"@ c #54C0F4",
"# c #56C0F4",
"$ c #56C1F4",
"% c #57C2F4",
"& c #5AC2F4",
"* c #5CC3F4",
"= c #5FC4F4",
"- c #60C5F4",
"; c #63C6F4",
": c #64C7F5",
"> c #68C8F5",
", c #69C8F5",
"< c #6AC8F5",
"1 c #6AC9F5",
"2 c #6BC9F5",
"3 c #6DCAF5",
"4 c #6ECAF5",
"5 c #6FCAF5",
"6 c #6FCBF5",
"7 c #70CBF5",
"8 c #72CCF5",
"9 c #75CDF5",
"0 c #76CDF5",
"q c #76CEF5",
"w c #77CEF5",
"e c #74CDF6",
"r c #76CEF6",
"t c #77CEF6",
"y c #78CFF5",
"u c #78CFF6",
"i c #79CFF6",
"p c #7ACFF6",
"a c #7CD0F6",
"s c #7ED1F6",
"d c #7FD1F6",
"f c #82D2F6",
"g c #83D3F6",
"h c #84D3F6",
"j c #85D4F6",
"k c #86D4F6",
"l c #88D5F6",
"z c #89D5F6",
"x c #88D5F7",
"c c #89D6F6",
"v c #8AD6F6",
"b c #8BD6F6",
"n c #8BD6F7",
"m c #8CD7F7",
"M c #8ED7F7",
"N c #8FD8F7",
"B c #90D8F7",
"V c #91D9F7",
"C c #93DAF7",
"Z c #94DAF7",
"A c #95DAF7",
"S c #96DBF7",
"D c #97DBF7",
"F c #98DBF7",
"G c #98DCF7",
"H c #9ADCF7",
"J c #9ADDF7",
"K c #A0DFF8",
"L c #A1DFF8",
"P c #A5E1F8",
"I c #A8E2F8",
"U c #AAE3F8",
"Y c #ABE4F8",
"T c #B2E7F8",
"R c None",
/* pixels */
"RRRRRRRRRRRRRRRRRRRRRRRR",
"RRRRRRRRR-esseRRRRRRRRRR",
"RRRRRROsAAMggzAC7RRRRRRR",
"RRRRR6GC1RRRRRRRepRRRRRR",
"RRRRpA1RRRRRRRRRRRh1RRRR",
"RRRpN.RRRRRRRRRRRRRG6RRR",
"RR1C#RRRRRRRRRRRRRRRPRRR",
"RRM8RRRRRRRRRRRRRRRRaNRR",
"R1N RRRRRRRRRRRRRRRRRARR",
"RhsRRRRRRRRRRRRRRRRRRjsR",
"RC6RRRRRRRRRRRRRRRRRReCR",
"RA1RRRRRRRRRRRRRRRRRR8AR",
"RG6RRRRRRRRRRRRRRRRRR6GR",
"RGsRRRRRRRRRRRRRRRRRRazR",
"RjFRRRRRRRRRRRRRRRRRRjeR",
"R#KRRRRRRRRRRRRRRRRR&C#R",
"RRMeRRRRRRRRRRRRRRRRzsRR",
"RRRARRRRRRRRRRRRRRRsNXRR",
"RRR-YXRRRRRRRRRRRRpG*RRR",
"RRRR6TpRRRRRRRRRRpz*RRRR",
"RRRRRRCze#RRRR&6ye&RRRRR",
"RRRRRRR#jPYPPAje-RRRRRRR",
"RRRRRRRRRR*1-#RRRRRRRRRR",
"RRRRRRRRRRRRRRRRRRRRRRRR"
};
