/* XPM */
static char *bitcoin128[] = {
/* columns rows colors chars-per-pixel */
"128 128 46 1 ",
"  c #FE0000",
". c #16A6F1",
"X c #19A7F1",
"o c #1CA9F1",
"O c #24ACF1",
"+ c #2AAEF2",
"@ c #2EB0F2",
"# c #33B2F2",
"$ c #3BB6F3",
"% c #40B7F3",
"& c #43B9F3",
"* c #4CBCF3",
"= c #51BFF4",
"- c #55C0F4",
"; c #5BC3F4",
": c #63C6F5",
"> c #67C8F5",
", c #6BC9F5",
"< c #74CDF5",
"1 c #79CFF6",
"2 c #7DD1F6",
"3 c #84D3F6",
"4 c #8BD6F6",
"5 c #8ED8F7",
"6 c #93DAF7",
"7 c #9BDDF7",
"8 c #9EDEF8",
"9 c #A0DFF7",
"0 c #A1DFF8",
"q c #A4E1F7",
"w c #A4E1F8",
"e c #ACE4F8",
"r c #B3E6F8",
"t c #B6E8F9",
"y c #BBEAF9",
"u c #C3EDF9",
"i c #C8EFF9",
"p c #CCF1FA",
"a c #D3F4FA",
"s c #DAF7FA",
"d c #DDF8FB",
"f c #E4FBFB",
"g c #ECFEFB",
"h c #F3FFFC",
"j c #FBFFFC",
"k c None",
/* pixels */
"kkkkkkkkkkkkkkkkkkkkkkkkkkkkkkkkkkkkkkkkkkkkkkkkkkkkkkkkkkkkkkkkkkkkkkkkkkkkkkkkkkkkkkkkkkkkkkkkkkkkkkkkkkkkkkkkkkkkkkkkkkkkkkkk",
"kkkkkkkkkkkkkkkkkkkkkkkkkkkkkkkkkkkkkkkkkkkkkkkkkkkkkkkkkkkkkkkkkkkkkkkkkkkkkkkkkkkkkkkkkkkkkkkkkkkkkkkkkkkkkkkkkkkkkkkkkkkkkkkk",
"kkkkkkkkkkkkkkkkkkkkkkkkkkkkkkkkkkkkkkkkkkkkkkkkkkkkkkkkkkkkkkkkkkkkkkkkkkkkkkkkkkkkkkkkkkkkkkkkkkkkkkkkkkkkkkkkkkkkkkkkkkkkkkkk",
"kkkkkkkkkkkkkkkkkkkkkkkkkkkkkkkkkkkkkkkkkkkkkkkkkkkkkkkkkkkkkkkkkkkkkkkkkkkkkkkkkkkkkkkkkkkkkkkkkkkkkkkkkkkkkkkkkkkkkkkkkkkkkkkk",
"kkkkkkkkkkkkkkkkkkkkkkkkkkkkkkkkkkkkkkkkkkkkkkkkkkkkkkkkkkkkkkkkkkkkkkkkkkkkkkkkkkkkkkkkkkkkkkkkkkkkkkkkkkkkkkkkkkkkkkkkkkkkkkkk",
"kkkkkkkkkkkkkkkkkkkkkkkkkkkkkkkkkkkkkkkkkkkkkkkkkkkkkkkkkkkkkkkkkkkkkkkkkkkkkkkkkkkkkkkkkkkkkkkkkkkkkkkkkkkkkkkkkkkkkkkkkkkkkkkk",
"kkkkkkkkkkkkkkkkkkkkkkkkkkkkkkkkkkkkkkkkkkkkkkkkkkkkkkkk++++OOO+++@kkkkkkkkkkkkkkkkkkkkkkkkkkkkkkkkkkkkkkkkkkkkkkkkkkkkkkkkkkkkk",
"kkkkkkkkkkkkkkkkkkkkkkkkkkkkkkkkkkkkkkkkkkkkkkkkk+OOoX..XXooOOOoXX..XXOO++kkkkkkkkkkkkkkkkkkkkkkkkkkkkkkkkkkkkkkkkkkkkkkkkkkkkkk",
"kkkkkkkkkkkkkkkkkkkkkkkkkkkkkkkkkkkkkkkkkkkkk@OOX.o+&;<47wtuiiuyr062:*#OXXXOO@kkkkkkkkkkkkkkkkkkkkkkkkkkkkkkkkkkkkkkkkkkkkkkkkkk",
"kkkkkkkkkkkkkkkkkkkkkkkkkkkkkkkkkkkkkkkkkk+OXXO$,6ysgggdaiytrrrryusfggdiq2-@oXOO+kkkkkkkkkkkkkkkkkkkkkkkkkkkkkkkkkkkkkkkkkkkkkkk",
"kkkkkkkkkkkkkkkkkkkkkkkkkkkkkkkkkkkkkkkkOX.@;6ufgsy6<=$@++@#$%&**==;:15epdfpq<$OXO+kkkkkkkkkkkkkkkkkkkkkkkkkkkkkkkkkkkkkkkkkkkkk",
"kkkkkkkkkkkkkkkkkkkkkkkkkkkkkkkkkkkkk+O.O-7sgse2*@oO#-,4wtpafffgggfdauyw87eusgse<#ooO+kkkkkkkkkkkkkkkkkkkkkkkkkkkkkkkkkkkkkkkkkk",
"kkkkkkkkkkkkkkkkkkkkkkkkkkkkkkkkkkk+oX#1pgs8;@XO$,7usfhjjjjhhffsssddfggjjhgdaasgga6=OX++kkkkkkkkkkkkkkkkkkkkkkkkkkkkkkkkkkkkkkkk",
"kkkkkkkkkkkkkkkkkkkkkkkkkkkkkkkkk@O.$6dgt,@X+-4yfghhjhfat83<:=*&&$$&%*=:14eusghggghfe;Oo+kkkkkkkkkkkkkkkkkkkkkkkkkkkkkkkkkkkkkkk",
"kkkkkkkkkkkkkkkkkkkkkkkkkkkkkkk+O.$6fg7*oo*4ufhhhhfu71=$+OOOOOOOO+O+OOOOoOO@$-2wpghhhgr;OX+kkkkkkkkkkkkkkkkkkkkkkkkkkkkkkkkkkkkk",
"kkkkkkkkkkkkkkkkkkkkkkkkkkkkkk+X@3fg6$.@>rfgghgfr3-#OOO+@++@+++++OO+++O++++@OOOO#;4ufhhge=XO+kkkkkkkkkkkkkkkkkkkkkkkkkkkkkkkkkkk",
"kkkkkkkkkkkkkkkkkkkkkkkkkkkk+Oo:ah7$X#2pfffggu3*+OO+@+++kkkkkkkkkkkkkkkkkkkkO+++OOO@;6ahjf6$X+kkkkkkkkkkkkkkkkkkkkkkkkkkkkkkkkkk",
"kkkkkkkkkkkkkkkkkkkkkkkkkkk+X#0hy=X@2pfaaffe:#OO@#++kkkkkkkkkkkkkkkkkkkkkkkkkkkkk+@OoO$1ygji:oO+kkkkkkkkkkkkkkkkkkkkkkkkkkkkkkkk",
"kkkkkkkkkkkkkkkkkkkkkkkkkkOX:sg1Oo:pguydfw-@O@@+Okkkkkkkkkkkkkkkkkkkkkkkkkkkkkkkkkkk++Oo#,yhh0$X+kkkkkkkkkkkkkkkkkkkkkkkkkkkkkkk",
"kkkkkkkkkkkkkkkkkkkkkkkk+OO5ht&.%rgu7pge-OO@@+kkkkkkkkkkkkkkkkkkkkkkkkkkkkkkkkkkkkkkkkk+Oo#,ija:Oo+kkkkkkkkkkkkkkkkkkkkkkkkkkkkk",
"kkkkkkkkkkkkkkkkkkkkkkk@o#yh4OO1fs5ehu;OO@@Okkkkkkkkkkkkkkkkkkkkkkkkkkkkkkkkkkkkkkkkkkkkk++o#3fjw$o+kkkkkkkkkkkkkkkkkkkkkkkkkkkk",
"kkkkkkkkkkkkkkkkkkkkkk+X&af;X$rh81af2+O#@+kkkkkkkkkkkkkkkkkkkkkkkkkkkkkkkkkkkkkkkkkkkkkkkkk+OO*yja>oO+kkkkkkkkkkkkkkkkkkkkkkkkkk",
"kkkkkkkkkkkkkkkkkkkkk+X-fp%X;fs,5hy&O@@Okkkkkkkkkkkkkkkkkkkkkkkkkkkkkkkkkkkkkkkkkkkkkkkkkkkkk+O@6hh6@o+kkkkkkkkkkkkkkkkkkkkkkkkk",
"kkkkkkkkkkkkkkkkkkkk+X:hr#o3jr=yh3++@+kkkkkkkkkkkkkkkkkkkkkkkkkkkkkkkkkkkkkkkkkkkkkkkkkkkkkkkk+OO2gjy&X@kkkkkkkkkkkkkkkkkkkkkkkk",
"kkkkkkkkkkkkkkkkkkk+X:he++0j4*ss-O+++kkkkkkkkkkkkkkkkkkkkkkkkkkkkkkkkkkkkkkkkkkkkkkkkkkkkkkkkkkO+o,fha;X+kkkkkkkkkkkkkkkkkkkkkkk",
"kkkkkkkkkkkkkkkkkk+X:hwO@rh::hu$O#+kkkkkkkkkkkkkkkkkkkkkkkkkkkkkkkkkkkkkkkkkkkkkkkkkkkkkkkkkkkkkk+o:fhf<oOkkkkkkkkkkkkkkkkkkkkkk",
"kkkkkkkkkkkkkkkkk+X=geO#uh*,j0++#Okkkkkkkkkkkkkkkkkkkkkkkkkkkkkkkkkkkkkkkkkkkkkkkkkkkkkkkkkkkkkkkk+X:fgg2o+kkkkkkkkkkkkkkkkkkkkk",
"kkkkkkkkkkkkkkkk+O$fuO+uf&<j6+++kkkkkkkkkkkkkkkkkkkkkkkkkkkkkkkkkkkkkkkkkkkkkkkkkkkkkkkkkkkkkkkkkkk+X1ggg3o+kkkkkkkkkkkkkkkkkkkk",
"kkkkkkkkkkkkkkkkO+aa#+ug%<j5O@+kkkkkkkkkkkkkkkkkkkkkkkkkkkkkkkkkkkkkkkkkkkkkkkkkkkkkkkkkkkkkkkkkkkkk+o4hgh2X+kkkkkkkkkkkkkkkkkkk",
"kkkkkkkkkkkkkkkOoeg&Oyg&,j5O@+kkkkkkkkkkkkkkkkkkkkkkkkkkkkkkkkkkkkkkkkkkkkkkkkkkkkkkkkkkkkkkkkkkkkkk+OOehfh1o+kkkkkkkkkkkkkkkkkk",
"kkkkkkkkkkkkkk+X2j,owh*=j6O@+kkkkkkkkkkkkkkkkkkkkkkkkkkkkkkkkkkkkkkkkkkkkkkkkkkkkkkkkkkkkkkkkkkkkkkkk+o#igfg,X+kkkkkkkkkkkkkkkkk",
"kkkkkkkkkkkkk+o*h6X3j,$heO@@kkkkkkkkkkkkkkkkkkkkkkkkkkkkkkkkkkkkkkkkkkkkkkkkkkkkkkkkkkkkkkkkkkkkkkkkkk+X*fggf=o+kkkkkkkkkkkkkkkk",
"kkkkkkkkkkkkkO+ppO:j4Osi@++kkkkkkkkkkkkkkkkkkkkkkkkkkkkkkkkkkkkkkkkkkkkkkkkkkkkkkkkkkkkkkkkkkkkkkkkkkkk+X2hdhp$O+kkkkkkkkkkkkkkk",
"kkkkkkkkkkkk+X4h*$frorf&++kkkkkkkkkkkkkkkkkkkkkkkkkkkkkkkkkkkkkkkkkkkkkkkkkkkkkkkkkkkkkkkkkkkkkkkkkkkkkkOOtfpjeOOkkkkkkkkkkkkkkk",
"kkkkkkkkkkkko*h5orf@1j:O#kkkkkkkkkkkkkkkkkkkkkkkkkkkkkkkkkkkkkkkkkkkkkkkkkkkkkkkkkkkkkkkkkkkkkkkkkkkkkkk+o*fuah3o+kkkkkkkkkkkkkk",
"kkkkkkkkkkk+Oya+1j;&h6O#+kkkkkkkkkkkkkkkkkkkkkkkkkkkkkkkkkkkkkkkkkkkkkkkkkkkkkkkkkkkkkkkkkkkkkkkkkkkkkkkk+.3gqgf=o+kkkkkkkkkkkkk",
"kkkkkkkkkk+X:h:$g0oup#@+kkkkkkkkkkkkkkkkkkkkkkkkkkkkkkkkkkkkkkkkkkkkkkkkkkkkkkkkkkkkkkkkkkkkkkkkkkkkkkkkkkO@at0ju+Okkkkkkkkkkkkk",
"kkkkkkkkkkOOuuOef+1j;O@kkkkkkkkkkkkkkkkkkkkkkkkkkkkkkkkkkkkkkkkkkkkkkkkkkkkkkkkkkkkkkkkkkkkkkkkkkkkkkkkkkk@.,h1pj3X+kkkkkkkkkkkk",
"kkkkkkkkk+X,h-*j<#g8O#OkkkkkkkkkkkkkkkkkkkkkkkkkkkkkkkkkkkkkkkkkkkkkkkkkkkkkkkkkkkkkkkkkkkkkkkkkkkkkkkkkkkkOOpt1hd*o+kkkkkkkkkkk",
"kkkkkkkkkOOiuOupo9f$++kkkkkkkkkkkkkkkkkkkkkkkkkkkkkkkkkkkkkkkkkkkkkkkkkkkkkkkkkkkkkkkkkkkkkkkkkkkkkkkkkkkkk+X,h:rj0O+kkkkkkkkkkk",
"kkkkkkkkko:h;;j;&h2O#kkkkkkkkkkkkkkkkkkkkkkkkkkkkkkkkkkkkkkkkkkkkkkkkkkkkkkkkkkkkkkkkkkkkkkkkkkkkkkkkkkkkkkkO+pe;hf-o+kkkkkkkkkk",
"kkkkkkkkOOti+iuXea#++kkkkkkkkkkkkkkkkkkkkkkkkkkkkkkkkkkkkkkkkkkkkkkkkkkkkkkkkkkkkkkkkkkkkkkkkkkkkkkkkkkkkkkk+X<h*ejeOOkkkkkkkkkk",
"kkkkkkkko*g<;h;&h2O@kkkkkkkkkkkkkkkkkkkkkkkkkkkkkkkkkkkkkkkkkkkkkkkkkkkkkkkkkkkkkkkkkkkkkkkkkkkkkkkkkkkkkkkkkO#d5;hg;o+kkkkkkkkk",
"kkkkkkk+X5f#rpOws#++kkkkkkkkkkkkkkkkkkkkkkkkkkkkkkkkkkkkkkkkkkkkkkkkkkkkkkkkkkkkkkkkkkkkkkkkkkkkkkkkkkkkkkkkk+X7d#tjwO+kkkkkkkkk",
"kkkkkkkO+a8&g1#g3O+kkkkkkkkkkkkkkkkkkkkkkkkkkkkkkkkkkkkkkkkkkkkkkkkkkkkkkkkkkkkkkkkkkkkkkkkkkkkkkkkkkkkkkkkkkko=h:,hf*okkkkkkkkk",
"kkkkkkkX;h-3g@3f%++kkkkkkkkkkkkkkkkkkkkkkkkkkkkkkkkkkkkkkkkkkkkkkkkkkkkkkkkkkkkkkkkkkkkkkkkkkkkkkkkkkkkkkkkkkkOOpe#aj4X+kkkkkkkk",
"kkkkkk+X7a#awOaeO@kkkkkkkkkkkkkkkkkkkkkkkkkkkkkkkkkkkkkkkkkkkkkkkkkkkkkkkkkkkkkkkkkkkkkkkkkkkkkkkkkkkkkkkkkkkk+X4f#6jp#Okkkkkkkk",
"kkkkkkOOa8=h--h;O+kkkkkkkkkkkkkkkkkkkkkkkkkkkkkkkkkkkkkkkkkkkkkkkkkkkkkkkkkkkkkkkkkkkkkkkkkkkkkkkkkkkkkkkkkkkkkX*h;-gg,o+kkkkkkk",
"kkkkkko*g:4dOqa@+kkkkkkkkkkkkkkkkkkkkkkkkkkkkkkkkkkkkkkkkkkkkkkkkkkkkkkkkkkkkkkkkkkkkkkkkkkkkkkkkkkkkkkkkkkkkkkO@a7OpjqOOkkkkkkk",
"kkkkkk.1g&ueOs6O@kkkkkkkkkkkkkkkkkkkkkkkkkkkkkkkkkkkkkkkkkkkkkkkkkkkkkkkkkkkkkkkkkkkkkkkkkkkkkkkkkkkkkkkkkkkkkk+XepO7jp$Okkkkkkk",
"kkkkk+.wp&g,*h;O@kkkkkkkkkkkkkkkkkkkkkkkkkkkkkkkkkkkkkkkkkkkkkkkkkkkkkkkkkkkkkkkkkkkkkkkkkkkkkkkkkkkkkkkkkkkkkkkX1g$>hg:o+kkkkkk",
"kkkkkO+p8>g$4d$+kkkkkkkkkkkkkkkkkkkkkkkkkkkkkkkkkkkkkkkkkkkkkkkkkkkkkkkkkkkkkkkkkkkkkkkkkkkkkkkkkkkkkkkkkkkkkkkkX*g:$fh5o+kkkkkk",
"kkkkko$g<6sOurO@kkkkkkkkkkkkkkkkkkkkkkkkkkkkkkkkkkkkkkkkkkkkkkkkkkkkkkkkkkkkkkkkkkkkkkkkkkkkkkkkkkkkkkkkkkkkkkkkO#s5Oujt@Okkkkkk",
"kkkkkX;g;ye@f3O+kkkkkkkkkkkkkkkkkkkkkkkkkkkkkkkkkkkkkkkkkkkkkkkkkkkkkkkkkkkkkkkkkkkkkkkkkkkkkkkkkkkkkkkkkkkkkkkkOOiro8ja&Okkkkkk",
"kkkkkX1f=s3*g;O+kkkkkkkkkkkkkkkkkkkkkkkkkkkkkkkkkkkkkkkkkkkkkkkkkkkkkkkkkkkkkkkkkkkkkkkkkkkkkkkkkkkkkkkkkkkkkkkk+Xwpo3hg:o+kkkkk",
"kkkk+X5a-g;1f&OkkkkkkkkkkkkkkkkkkkkkkkkkkkkkkkkkkkkkkkkkkkkkkkkkkkkkkkkkkkkkkkkkkkkkkkkkkkkkkkkkkkkkkkkkkkkkkkkkkX4d@:gh3o+kkkkk",
"kkkk+oeu:g&8p#+kkkkkkkkkkkkkk  kkkkkkkkkkkkkkkkkkkkkkkkk  kkkkkkkkkkkkkkkkkkkkkkkkkkkkkkkkkkkkkkkkkkkkkkkkkkkkkkk.1g&*ghqO+kkkkk",
"kkkkOOye1g$ytO+kkkkkkkkkkkkk   kkkkkkkkkkkkkkkkkkkkkkkkk  kkk   kkkkkkkkkkkkkkkkkkkkkkkkkkkkkkkkkkkkkkkkkkkkkkkkkX;g=#sht++kkkkk",
"kkkkOOi83s$a7O@kkkkkkkkkkkkk   kkkkkkkkkkkkkkkkkkkkkkkkk  kkk   kkkkkkkkkkkkkkkkkkkkkkkkkkkkkkkkkkkkkkkkkkkkkkkkkX=f:+php#Okkkkk",
"kkkkO+a66a$f3o+kkkkkkkkkkkkk   kkkkkkkkkkkkkkkkkkkkkkkkk  kkkkkkkkkkkkkkkkkkkkkkkkkkkkkkkkkkkkkkkkkkkkkkkkkkkkkkko*g,Oigd*Okkkkk",
"kkkkO@s58p&f,O+kkkkkkkkkkkkk   kkkkkkkkkkkkkkkkkkkkkkkkk  kkkkkkkkkkkkkkkkkkkkkkkkkkkkkkkkkkkkkkkkkkkkkkkkkkkkkkko&g1ougf=O+kkkk",
"kkkkO#f4wu-g;O+kkkkkkkkkkkkk   kkk kkkkkkkkkkk  kkkkkkkk  kkkkkkkkkkkkkkkkkkkkkkkkkkkkk kkkkkk  kkkkkkkkkkkkkkkkko&g2oyhg;o+kkkk",
"kkkko#f4eu;g;O+kkkkkkkkkkkkk   k     kkkkkkk      kkkkkk  kkkk  kkkk  kkkkkk  kkkk kk     kk      kkkkkkkkkkkkkkko&g2oyhg>o+kkkk",
"kkkkO#d5eu:h-oOkkkkkkkkkkkkk     kk   kkkkk  kkkk  kkkkk  kkkk  kkkk  kkkkkk  kkkk    kk     kk   kkkkkkkkkkkkkkkX&g2oygg1o+kkkk",
"kkkkO@s5wu,h=o@kkkkkkkkkkkkk   kkkkk  kkkk  kkkkkk  kkkk  kkkk  kkkk  kkkkkk  kkkk   kkkk   kkkk   kkkkkkkkkkkkkko&g<oyfg1o@kkkk",
"kkkkO@p78u<g*O+kkkkkkkkkkkkk   kkkkk  kkkk  kkkkkk  kkkk  kkkk  kkkk  kkkkkk  kkkk  kkkkk  kkkkkk  kkkkkkkkkkkkkkX*g,oisg1X@kkkk",
"kkkkOOuw5p<g-OOkkkkkkkkkkkkk   kkkkk  kkkk  kkkkkk  kkkk  kkkk  kkkk  kkkkkk  kkkk  kkkkk  kkkkkk  kkkkkkkkkkkkkkX;g;@ppf1oOkkkk",
"kkkkOXtt3s<g;o+kkkkkkkkkkkkk   kkkkk  kkkk          kkkk  kkkk  kkkk  kkkkkk  kkkk  kkkkk  kkkkkk  kkkkkkkkkkkkkk.,g*#ayf,O@kkkk",
"kkkkOXqp1f3f:O+kkkkkkkkkkkkk   kkkkk  kkkk  kkkkkkkkkkkk  kkkk  kkkk  kkkkkk  kkkk  kkkkk  kkkkkk  kkkkkkkkkkkkkk.3f$&fef:o@kkkk",
"kkkk@.3s>d4f,o+kkkkkkkkkkkkk   kkkkk  kkkk  kkkkkkkkkkkk  kkkk  kkkk  kkkkkk  kkkk  kkkkk  kkkkkk  kkkkkkkkkkkkk+X6a@;f8d-OOkkkk",
"kkkkkX,g>sqd3X+kkkkkkkkkkkkk   kkkkk  kkkk  kkkkkkkkkkkk  kkkk  kkkk  kkkkk   kkkk  kkkkk  kkkkkk  kkkkkkkkkkkkkOoyuX2d7f*Okkkkk",
"kkkkkX*g,urs7o+kkkkkkkkkkkkk   kkkkk  kkkk   kkkkkkkkkkk  kkkk  kkkk  kkkk    kkkk  kkkkk  kkkkkk  kkkkkkkkkkkkkO@pq.8p6s#+kkkkk",
"kkkkko#d5wapeO@kkkkkkkkkkkkk   kkkkk  kkkkk         kkkk  kkkk  kkkk          kkkk  kkkkk  kkkkkk  kkkkkkkkkkkkko$f2ouewp@Okkkkk",
"kkkkk@oyr2fpu@Okkkkkkkkkkkkkk kkkkkk  kkkkkk       kkkkk  kkkk  kkkkk     kk  kkkk  kkkkk  kkkkkk  kkkkkkkkkkkkkX:g-#f3yrO@kkkkk",
"kkkkk@X5a>fas$Okkkkkkkkkkkkkkkkkkkkkkkkkkkkkkkkkkkkkkkkkkkkkkkkkkkkkkkkkkkkkkkkkkkkkkkkkkkkkkkkkkkkkkkkkkkkkkkk@X5d@;g:a5o@kkkkk",
"kkkkkkX;g>iff;O@kkkkkkkkkkkkkkkkkkkkkkkkkkkkkkkkkkkkkkkkkkkkkkkkkkkkkkkkkkkkkkkkkkkkkkkkkkkkkkkkkkkkkkkkkkkkkkkOOutX5a;g>O+kkkkk",
"kkkkkkO#f38gg3o+kkkkkkkkkkkkkkkkkkkkkkkkkkkkkkkkkkkkkkkkkkkkkkkkkkkkkkkkkkkkkkkkkkkkkkkkkkkkkkkkkkkkkkkkkkkkkkkO$f3opq,g&O+kkkkk",
"kkkkkkOott,ghwO+kkkkkkkkkkkkkkkkkkkkkkkkkkkkkkkkkkkkkkkkkkkkkkkkkkkkkkkkkkkkkkkkkkkkkkkkkkkkkkkkkkkkkkkkkkkkkkkX,g*&g,8p@+kkkkkk",
"kkkkkk@.1g;ahp#Okkkkkkkkkkkkkkkkkkkkkkkkkkkkkkkkkkkkkkkkkkkkkkkkkkkkkkkkkkkkkkkkkkkkkkkkkkkkkkkkkkkkkkkkkkkkkk+Xepo3f$a0O+kkkkkk",
"kkkkkkko$g28hf;o+kkkkkkkkkkkkkkkkkkkkkkkkkkkkkkkkkkkkkkkkkkkkkkkkkkkkkkkkkkkkkkkkkkkkkkkkkkkkkkkkkkkkkkkkkkkkkO#d5Ope*g>O+kkkkkk",
"kkkkkkkOOru:gh5o+kkkkkkkkkkkkkkkkkkkkkkkkkkkkkkkkkkkkkkkkkkkkkkkkkkkkkkkkkkkkkkkkkkkkkkkkkkkkkkkkkkkkkkkkkkkk+.1g&-h;2f$Okkkkkkk",
"kkkkkkk@.,g;yju@OkkkkkkkkkkkkkkkkkkkkkkkkkkkkkkkkkkkkkkkkkkkkkkkkkkkkkkkkkkkkkkkkkkkkkkkkkkkkkkkkkkkkkkkkkkkkOOyuOwa+irO@kkkkkkk",
"kkkkkkkkO@s71hf;o+kkkkkkkkkkkkkkkkkkkkkkkkkkkkkkkkkkkkkkkkkkkkkkkkkkkkkkkkkkkkkkkkkkkkkkkkkkkkkkkkkkkkkkkkkkko=h,$g3&h,O+kkkkkkk",
"kkkkkkkk+X5f-aj6o+kkkkkkkkkkkkkkkkkkkkkkkkkkkkkkkkkkkkkkkkkkkkkkkkkkkkkkkkkkkkkkkkkkkkkkkkkkkkkkkkkkkkkkkkkk+X0d@5f#5d$+kkkkkkkk",
"kkkkkkkkkO$f43ja$Okkkkkkkkkkkkkkkkkkkkkkkkkkkkkkkkkkkkkkkkkkkkkkkkkkkkkkkkkkkkkkkkkkkkkkkkkkkkkkkkkkkkkkkkkko&g3#g6+d7O#kkkkkkkk",
"kkkkkkkkk+o7f=ah2X+kkkkkkkkkkkkkkkkkkkkkkkkkkkkkkkkkkkkkkkkkkkkkkkkkkkkkkkkkkkkkkkkkkkkkkkkkkkkkkkkkkkkkkkk+X8f#6g#,g=O+kkkkkkkk",
"kkkkkkkkkkO%g41ju@Okkkkkkkkkkkkkkkkkkkkkkkkkkkkkkkkkkkkkkkkkkkkkkkkkkkkkkkkkkkkkkkkkkkkkkkkkkkkkkkkkkkkkkkko%g3%h4opt++kkkkkkkkk",
"kkkkkkkkkk+X6f*uj<o+kkkkkkkkkkkkkkkkkkkkkkkkkkkkkkkkkkkkkkkkkkkkkkkkkkkkkkkkkkkkkkkkkkkkkkkkkkkkkkkkkkkkkk+X0f#rsO>h:O+kkkkkkkkk",
"kkkkkkkkkkkO#f7:ju@Okkkkkkkkkkkkkkkkkkkkkkkkkkkkkkkkkkkkkkkkkkkkkkkkkkkkkkkkkkkkkkkkkkkkkkkkkkkkkkkkkkkkk+o=h1:j,opy+#kkkkkkkkkk",
"kkkkkkkkkkk+X3h-0j1X+kkkkkkkkkkkkkkkkkkkkkkkkkkkkkkkkkkkkkkkkkkkkkkkkkkkkkkkkkkkkkkkkkkkkkkkkkkkkkkkkkkkkOOui%fr.<h;O+kkkkkkkkkk",
"kkkkkkkkkkkkO+ui&fa#O+kkkkkkkkkkkkkkkkkkkkkkkkkkkkkkkkkkkkkkkkkkkkkkkkkkkkkkkkkkkkkkkkkkkkkkkkkkkkkkkkkk+X1j=0g#+sr+@kkkkkkkkkkk",
"kkkkkkkkkkkk+o=h3>j7o+kkkkkkkkkkkkkkkkkkkkkkkkkkkkkkkkkkkkkkkkkkkkkkkkkkkkkkkkkkkkkkkkkkkkkkkkkkkkkkkkk+o&g61j<.4g=O+kkkkkkkkkkk",
"kkkkkkkkkkkkk+o4j=7j:o+kkkkkkkkkkkkkkkkkkkkkkkkkkkkkkkkkkkkkkkkkkkkkkkkkkkkkkkkkkkkkkkkkkkkkkkkkkkkkkkkOOui:g0X*h5O+kkkkkkkkkkkk",
"kkkkkkkkkkkkkkOOus%ad$o+kkkkkkkkkkkkkkkkkkkkkkkkkkkkkkkkkkkkkkkkkkkkkkkkkkkkkkkkkkkkkkkkkkkkkkkkkkkkkk+X4h<pi+Oua#++kkkkkkkkkkkk",
"kkkkkkkkkkkkkk+o&fe;hu@O+kkkkkkkkkkkkkkkkkkkkkkkkkkkkkkkkkkkkkkkkkkkkkkkkkkkkkkkkkkkkkkkkkkkkkkkkkkkk+X,h5yf%.3h;O@kkkkkkkkkkkkk",
"kkkkkkkkkkkkkkk+X:h44jeOO+kkkkkkkkkkkkkkkkkkkkkkkkkkkkkkkkkkkkkkkkkkkkkkkkkkkkkkkkkkkkkkkkkkkkkkkkkk+o&fyrg-X=h6O@kkkkkkkkkkkkkk",
"kkkkkkkkkkkkkkkk+o3j3rj0OO+kkkkkkkkkkkkkkkkkkkkkkkkkkkkkkkkkkkkkkkkkkkkkkkkkkkkkkkkkkkkkkkkkkkkkkkk+o$aaug:.#su@@+kkkkkkkkkkkkkk",
"kkkkkkkkkkkkkkkkk+o7h3aj0OO+kkkkkkkkkkkkkkkkkkkkkkkkkkkkkkkkkkkkkkkkkkkkkkkkkkkkkkkkkkkkkkkkkkkkkk+O+ygag,o+tf%O+kkkkkkkkkkkkkkk",
"kkkkkkkkkkkkkkkkkkOOrf8dhe+o+kkkkkkkkkkkkkkkkkkkkkkkkkkkkkkkkkkkkkkkkkkkkkkkkkkkkkkkkkkkkkkkkkkkk+O+rgdg,oo6h;O#kkkkkkkkkkkkkkkk",
"kkkkkkkkkkkkkkkkkk+O+rgufhr#o+kkkkkkkkkkkkkkkkkkkkkkkkkkkkkkkkkkkkkkkkkkkkkkkkkkkkkkkkkkkkkkkkkk+O+ehgg:oo3j<O@kkkkkkkkkkkkkkkkk",
"kkkkkkkkkkkkkkkkkkk+O@rhdfhi*X+Okkkkkkkkkkkkkkkkkkkkkkkkkkkkkkkkkkkkkkkkkkkkkkkkkkkkkkkkkkkkkkk+o@thgd:oo1j3O@+kkkkkkkkkkkkkkkkk",
"kkkkkkkkkkkkkkkkkkkkOO@ehffhs>oO+kkkkkkkkkkkkkkkkkkkkkkkkkkkkkkkkkkkkkkkkkkkkkkkkkkkkkkkkkkkkk+o&uhhp*oo1h5O@+kkkkkkkkkkkkkkkkkk",
"kkkkkkkkkkkkkkkkkkkkk+OO6hgfgg5+o+Okkkkkkkkkkkkkkkkkkkkkkkkkkkkkkkkkkkkkkkkkkkkkkkkkkkkkkkkk+Oo=ahhe$oo2h6O#@kkkkkkkkkkkkkkkkkkk",
"kkkkkkkkkkkkkkkkkkkkkkO+o3gggghi=oO+kkkkkkkkkkkkkkkkkkkkkkkkkkkkkkkkkkkkkkkkkkkkkkkkkkkkkkk+OO1fhf3OOO4j4O@+kkkkkkkkkkkkkkkkkkkk",
"kkkkkkkkkkkkkkkkkkkkkkk++o:ahgdfg6@XO+kkkkkkkkkkkkkkkkkkkkkkkkkkkkkkkkkkkkkkkkkkkkkkkkkkkk+X$0hhu;Oo+ej1O@@kkkkkkkkkkkkkkkkkkkkk",
"kkkkkkkkkkkkkkkkkkkkkkkkk+o$thgaufs,Oo++kkkkkkkkkkkkkkkkkkkkkkkkkkkkkkkkkkkkkkkkkkkkkkkkOOO:ajf5#Oo&ig:O#+kkkkkkkkkkkkkkkkkkkkkk",
"kkkkkkkkkkkkkkkkkkkkkkkkkk+O+3fjs0yhy-oXO@kkkkkkkkkkkkkkkkkkkkkkkkkkkkkkkkkkkkkkkkkkkk+Oo$9hht=OOO,fa=O#+kkkkkkkkkkkkkkkkkkkkkkk",
"kkkkkkkkkkkkkkkkkkkkkkkkkkk+Oo-thgw1uhy;OXO+kkkkkkkkkkkkkkkkkkkkkkkkkkkkkkkkkkkkkkkk+OX#1fji<+OO#0he#O#kkkkkkkkkkkkkkkkkkkkkkkkk",
"kkkkkkkkkkkkkkkkkkkkkkkkkkkkO@o@1sji<,uhu<#.oO+kkkkkkkkkkkkkkkkkkkkkkkkkkkkkkkkkk+OXX$2ajp1$OOO>sf1O++kkkkkkkkkkkkkkkkkkkkkkkkkk",
"kkkkkkkkkkkkkkkkkkkkkkkkkkkkkk+Oo&6fjr=;rgf6=OXXO++kkkkkkkkkkkkkkkkkkkkkkkkkk++OXX+-6dju<#OOo%rhr*O#+kkkkkkkkkkkkkkkkkkkkkkkkkkk",
"kkkkkkkkkkkkkkkkkkkkkkkkkkkkkkkk+OO*8ghw--4sga5-@o.XOO+++kkkkkkkkkkkkkk@++OOXXo#-3uhjy,#OOo$6gs,++@+kkkkkkkkkkkkkkkkkkkkkkkkkkkk",
"kkkkkkkkkkkkkkkkkkkkkkkkkkkkkkkkkO+OO*wghy<*:8afse2=#OXXXooOOOOOOOOOOoXXXoO#*19phjfe;+OOO%5gf5#O++kkkkkkkkkkkkkkkkkkkkkkkkkkkkkk",
"kkkkkkkkkkkkkkkkkkkkkkkkkkkkkkkkkkkO+OO=8gjfe1;:4ydfsuq3,;&##@@+++@#$%-:27rafjjhu3*+Oo+*7ff7&O+@kkkkkkkkkkkkkkkkkkkkkkkkkkkkkkkk",
"kkkkkkkkkkkkkkkkkkkkkkkkkkkkkkkkkkkkkO+OO*6sjjfu61<25rusdffappuuupupadgghjjhfi4;#ooO$<ygd5%O+#+kkkkkkkkkkkkkkkkkkkkkkkkkkkkkkkkk",
"kkkkkkkkkkkkkkkkkkkkkkkkkkkkkkkkkkkkkkk++OO%1tgjjhfayeq8qeyuadghhhhhhjhgfiw2*@XXO&,efgy<#O+@+kkkkkkkkkkkkkkkkkkkkkkkkkkkkkkkkkkk",
"kkkkkkkkkkkkkkkkkkkkkkkkkkkkkkkkkkkkkkkkk++OO@-5ufhhjhggdsddfgffddapt83:%+oX+&:6ufgp4*+O+#+kkkkkkkkkkkkkkkkkkkkkkkkkkkkkkkkkkkkk",
"kkkkkkkkkkkkkkkkkkkkkkkkkkkkkkkkkkkkkkkkkkkO++Oo#=3eafggdpyq631,;*&$$#$*;16rafgdr3*@O+@@+kkkkkkkkkkkkkkkkkkkkkkkkkkkkkkkkkkkkkkk",
"kkkkkkkkkkkkkkkkkkkkkkkkkkkkkkkkkkkkkkkkkkkkkk+++OOO$;2qysdffdssasasdffggfduq2;#OOO+++kkkkkkkkkkkkkkkkkkkkkkkkkkkkkkkkkkkkkkkkkk",
"kkkkkkkkkkkkkkkkkkkkkkkkkkkkkkkkkkkkkkkkkkkkkkkkk+++OOOO@$*;,2568q08632,;&$+OOO+#@+kkkkkkkkkkkkkkkkkkkkkkkkkkkkkkkkkkkkkkkkkkkkk",
"kkkkkkkkkkkkkkkkkkkkkkkkkkkkkkkkkkkkkkkkkkkkkkkkkkkkk+++OOOOOoOOOOOoOOOOO+++@++kkkkkkkkkkkkkkkkkkkkkkkkkkkkkkkkkkkkkkkkkkkkkkkkk",
"kkkkkkkkkkkkkkkkkkkkkkkkkkkkkkkkkkkkkkkkkkkkkkkkkkkkkkkkkk++++++@++@+@+++kkkkkkkkkkkkkkkkkkkkkkkkkkkkkkkkkkkkkkkkkkkkkkkkkkkkkkk",
"kkkkkkkkkkkkkkkkkkkkkkkkkkkkkkkkkkkkkkkkkkkkkkkkkkkkkkkkkkkkkkkkkkkkkkkkkkkkkkkkkkkkkkkkkkkkkkkkkkkkkkkkkkkkkkkkkkkkkkkkkkkkkkkk",
"kkkkkkkkkkkkkkkkkkkkkkkkkkkkkkkkkkkkkkkkkkkkkkkkkkkkkkkkkkkkkkkkkkkkkkkkkkkkkkkkkkkkkkkkkkkkkkkkkkkkkkkkkkkkkkkkkkkkkkkkkkkkkkkk",
"kkkkkkkkkkkkkkkkkkkkkkkkkkkkkkkkkkkkkkkkkkkkkkkkkkkkkkkkkkkkkkkkkkkkkkkkkkkkkkkkkkkkkkkkkkkkkkkkkkkkkkkkkkkkkkkkkkkkkkkkkkkkkkkk",
"kkkkkkkkkkkkkkkkkkkkkkkkkkkkkkkkkkkkkkkkkkkkkkkkkkkkkkkkkkkkkkkkkkkkkkkkkkkkkkkkkkkkkkkkkkkkkkkkkkkkkkkkkkkkkkkkkkkkkkkkkkkkkkkk",
"kkkkkkkkkkkkkkkkkkkkkkkkkkkkkkkkkkkkkkkkkkkkkkkkkkkkkkkkkkkkkkkkkkkkkkkkkkkkkkkkkkkkkkkkkkkkkkkkkkkkkkkkkkkkkkkkkkkkkkkkkkkkkkkk",
"kkkkkkkkkkkkkkkkkkkkkkkkkkkkkkkkkkkkkkkkkkkkkkkkkkkkkkkkkkkkkkkkkkkkkkkkkkkkkkkkkkkkkkkkkkkkkkkkkkkkkkkkkkkkkkkkkkkkkkkkkkkkkkkk",
"kkkkkkkkkkkkkkkkkkkkkkkkkkkkkkkkkkkkkkkkkkkkkkkkkkkkkkkkkkkkkkkkkkkkkkkkkkkkkkkkkkkkkkkkkkkkkkkkkkkkkkkkkkkkkkkkkkkkkkkkkkkkkkkk"
};
