/* XPM */
static char *bitcoin32[] = {
/* columns rows colors chars-per-pixel */
"32 32 143 2 ",
"   c #FE0000",
".  c #23ACF1",
"X  c #29AEF1",
"o  c #2BAFF2",
"O  c #2CAFF2",
"+  c #2CB0F2",
"@  c #2DB0F2",
"#  c #2FB0F2",
"$  c #31B1F2",
"%  c #3AB5F2",
"&  c #3CB6F2",
"*  c #3DB7F2",
"=  c #3EB6F3",
"-  c #3FB7F3",
";  c #40B7F3",
":  c #40B8F3",
">  c #41B8F3",
",  c #42B8F3",
"<  c #43B8F3",
"1  c #43B9F3",
"2  c #44B9F3",
"3  c #45B9F3",
"4  c #46BAF3",
"5  c #47BAF3",
"6  c #4ABBF3",
"7  c #4BBCF3",
"8  c #4CBCF3",
"9  c #4EBDF3",
"0  c #50BEF3",
"q  c #51BEF4",
"w  c #52BFF4",
"e  c #53BFF4",
"r  c #56C0F4",
"t  c #56C1F4",
"y  c #57C1F4",
"u  c #58C1F4",
"i  c #59C2F4",
"p  c #5AC2F4",
"a  c #5BC2F4",
"s  c #5CC3F4",
"d  c #5EC4F4",
"f  c #60C5F4",
"g  c #61C5F4",
"h  c #62C5F4",
"j  c #65C7F4",
"k  c #64C6F5",
"l  c #65C7F5",
"z  c #66C7F4",
"x  c #66C7F5",
"c  c #68C7F5",
"v  c #67C8F4",
"b  c #69C8F5",
"n  c #6AC8F5",
"m  c #6AC9F5",
"M  c #6BC9F5",
"N  c #6CC9F5",
"B  c #6CCAF5",
"V  c #6DCAF5",
"C  c #6ECAF5",
"Z  c #6ECBF5",
"A  c #70CBF5",
"S  c #71CBF5",
"D  c #71CCF5",
"F  c #72CCF5",
"G  c #73CCF5",
"H  c #74CDF5",
"J  c #75CDF5",
"K  c #76CDF5",
"L  c #76CEF5",
"P  c #77CEF5",
"I  c #77CEF6",
"U  c #78CEF5",
"Y  c #79CFF5",
"T  c #79CFF6",
"R  c #7ACFF6",
"E  c #7BCFF6",
"W  c #7AD0F6",
"Q  c #7BD0F6",
"!  c #7CD0F5",
"~  c #7CD0F6",
"^  c #7DD0F6",
"/  c #7DD1F6",
"(  c #7ED1F6",
")  c #7FD1F6",
"_  c #81D2F6",
"`  c #82D2F6",
"'  c #82D3F6",
"]  c #83D3F6",
"[  c #84D3F6",
"{  c #85D4F6",
"}  c #8AD5F6",
"|  c #8BD6F7",
" . c #8CD7F6",
".. c #8CD7F7",
"X. c #8DD7F7",
"o. c #8ED8F7",
"O. c #8FD8F7",
"+. c #90D8F7",
"@. c #90D9F7",
"#. c #91D9F7",
"$. c #92D9F7",
"%. c #93DAF7",
"&. c #94DAF7",
"*. c #95DBF7",
"=. c #96DBF7",
"-. c #97DBF7",
";. c #98DCF7",
":. c #99DCF7",
">. c #9ADCF7",
",. c #9ADDF7",
"<. c #9BDDF7",
"1. c #9CDDF7",
"2. c #9EDEF7",
"3. c #9FDEF8",
"4. c #9FDFF8",
"5. c #A0DEF8",
"6. c #A0DFF8",
"7. c #A1DFF8",
"8. c #A1E0F8",
"9. c #A2E0F8",
"0. c #A4E0F8",
"q. c #A4E1F8",
"w. c #A5E1F8",
"e. c #A6E1F8",
"r. c #A7E1F8",
"t. c #A7E2F8",
"y. c #A9E3F8",
"u. c #AAE3F8",
"i. c #ABE3F8",
"p. c #ACE4F8",
"a. c #ADE4F8",
"s. c #AEE5F8",
"d. c #AFE5F8",
"f. c #B2E6F8",
"g. c #B4E7F9",
"h. c #B5E8F9",
"j. c #B6E8F9",
"k. c #B7E9F9",
"l. c #B9E9F9",
"z. c #BBEAF9",
"x. c #BEEBF9",
"c. c #CEF2FA",
"v. c None",
/* pixels */
"v.v.v.v.v.v.v.v.v.v.v.v.v.v.v.v.v.v.v.v.v.v.v.v.v.v.v.v.v.v.v.v.",
"v.v.v.v.v.v.v.v.v.v.v.v.v.v.v.v.v.v.v.v.v.v.v.v.v.v.v.v.v.v.v.v.",
"v.v.v.v.v.v.v.v.v.v.7 h T ..;.6.7.7.;.E - v.v.v.v.v.v.v.v.v.v.v.",
"v.v.v.v.v.v.v.v.t G %.i.0.O.E C b A ] 7.y.%.8 v.v.v.v.v.v.v.v.v.",
"v.v.v.v.v.v.v.C | a.;.h # v.v.v.v.v.v.v.# C %.H v.v.v.v.v.v.v.v.",
"v.v.v.v.v.6 T =.1.i v.v.v.v.v.v.v.v.v.v.v.v.v.b %., v.v.v.v.v.v.",
"v.v.v.v.4 ~ =.] X v.v.v.v.v.v.v.v.v.v.v.v.v.v.v.w y.8 v.v.v.v.v.",
"v.v.v.v.W =.W v.v.v.v.v.v.v.v.v.v.v.v.v.v.v.v.v.v.i x., v.v.v.v.",
"v.v.v.C =.] . v.v.v.v.v.v.v.v.v.v.v.v.v.v.v.v.v.v.v.] g.v.v.v.v.",
"v.v.4 O.O., v.v.v.v.v.v.v.v.v.v.v.v.v.v.v.v.v.v.v.v.v.y.{ v.v.v.",
"v.v.G ;.b v.v.v.v.v.v.v.v.v.v.v.v.v.v.v.v.v.v.v.v.v.v.d a.; v.v.",
"v.v....., v.v.v.v.v.v.v.v.v.v.v.v.v.v.v.v.v.v.v.v.v.v.$ 1.] v.v.",
"v.w ;.H v.v.v.v.v.v.v.v.v.v.v.v.v.v.v.v.v.v.v.v.v.v.v.v.T 3.v.v.",
"v.c 6.h v.v.v.v.v.v.v.v.v.v.v.v.v.v.v.v.v.v.v.v.v.v.v.v.l y.w v.",
"v.H 7.0 v.v.v.v.v.v.v.v.v.v.v.v.v.v.v.v.v.v.v.v.v.v.v.v.i 0.b v.",
"v.~ e.4 v.v.v.  v.v.v.v.v.v.v.v.v.v.v.v.v.v.v.v.v.v.v.v.t 0.E v.",
"v.T i.4 v.v.v.  v.v.v.v.  v.v.v.v.v.v.v.v.v.  v.  v.v.v.i 6.W v.",
"v.c g.8 v.v.v.v.v.v.v.v.v.v.v.v.v.v.v.v.v.v.v.v.  v.v.v.h 3.C v.",
"v.8 l.l v.v.v.v.v.v.v.v.v.v.v.v.v.v.v.v.v.v.v.v.v.v.v.v.C ;.i v.",
"v.v.p.| v.v.v.v.v.v.v.v.v.v.v.v.v.v.v.v.v.v.v.v.v.v.v.v.] %.- v.",
"v.v.] i.v.v.v.v.v.v.v.v.v.v.v.v.v.v.v.v.v.v.v.v.v.v.v.s %.T v.v.",
"v.v.4 f.s v.v.v.v.v.v.v.v.v.v.v.v.v.v.v.v.v.v.v.v.v.v.[ %.i v.v.",
"v.v.v.] =.v.v.v.v.v.v.v.v.v.v.v.v.v.v.v.v.v.v.v.v.v.l ;.T v.v.v.",
"v.v.v.X 6.T v.v.v.v.v.v.v.v.v.v.v.v.v.v.v.v.v.v.v.6 0.] e v.v.v.",
"v.v.v.v.4 x.~ v.v.v.v.v.v.v.v.v.v.v.v.v.v.v.v.v.- i.] l v.v.v.v.",
"v.v.v.v.v.w c.;.v.v.v.v.v.v.v.v.v.v.v.v.v.v.v.t 9.~ v v.v.v.v.v.",
"v.v.v.v.v.v.% j.f.h v.v.v.v.v.v.v.v.v.v.v.v.G O.G l v.v.v.v.v.v.",
"v.v.v.v.v.v.v.v.H 6.;.H 8 X v.v.v.v.- d H T H C s v.v.v.v.v.v.v.",
"v.v.v.v.v.v.v.v.v.O G 9.j.l.f.a.y.0.9.%.~ A h * v.v.v.v.v.v.v.v.",
"v.v.v.v.v.v.v.v.v.v.v.v.w T %.%...~ C i 8 v.v.v.v.v.v.v.v.v.v.v.",
"v.v.v.v.v.v.v.v.v.v.v.v.v.v.v.v.v.v.v.v.v.v.v.v.v.v.v.v.v.v.v.v.",
"v.v.v.v.v.v.v.v.v.v.v.v.v.v.v.v.v.v.v.v.v.v.v.v.v.v.v.v.v.v.v.v."
};
