/* XPM */
static char *bitcoin16[] = {
/* columns rows colors chars-per-pixel */
"16 16 47 1 ",
"  c #5EC4F4",
". c #64C6F4",
"X c #64C6F5",
"o c #67C7F5",
"O c #68C8F5",
"+ c #6BC9F5",
"@ c #6CC9F5",
"# c #6DC9F5",
"$ c #71CBF5",
"% c #73CCF5",
"& c #73CDF5",
"* c #75CDF5",
"= c #77CDF5",
"- c #75CEF5",
"; c #76CEF5",
": c #77CEF6",
"> c #78CEF6",
", c #79CFF6",
"< c #7ACFF6",
"1 c #7AD0F6",
"2 c #7CD0F6",
"3 c #7DD0F6",
"4 c #7DD1F6",
"5 c #7ED0F6",
"6 c #7FD1F6",
"7 c #7FD2F6",
"8 c #80CFF4",
"9 c #81D0F4",
"0 c #80D1F5",
"q c #82D1F5",
"w c #80D2F6",
"e c #81D2F6",
"r c #82D3F6",
"t c #83D3F6",
"y c #86D2F4",
"u c #84D3F6",
"i c #84D4F6",
"p c #85D4F6",
"a c #86D4F6",
"s c #87D5F6",
"d c #89D5F6",
"f c #8AD6F6",
"g c #8CD7F7",
"h c #8ED7F6",
"j c #8FD8F7",
"k c #93DAF7",
"l c None",
/* pixels */
"llllllllllllllll",
"llllXes6ee1lllll",
"lll>s%lllll+Xlll",
"ll>1llllllll=6ll",
"l%6llllllllllfll",
"lellllllllllllel",
"l6llllllllllllel",
"=8lllllllllllle=",
"=ylllllllllllle%",
"ljllllllllllllel",
"lslllllllllll@6l",
"ll6lllllllllls l",
"ll6jlllllllls+ll",
"lll6t%llll+%.lll",
"lllll=jkf>+lllll",
"llllllllllllllll"
};
