/* XPM */
static char *bitcoin64[] = {
/* columns rows colors chars-per-pixel */
"64 64 2 1 ",
"  c #74ADE8",
". c None",
/* pixels */
"................................................................",
"................................................................",
"................................................................",
"........               ..................               ........",
"........               ..................               ........",
"........               ..................               ........",
"........               ..................               ........",
"........               ..................               ........",
"........               ..................               ........",
"........               ..................               ........",
"........               ..................               ........",
"........               ..................               ........",
"........               ..................               ........",
"........               ..................               ........",
"........               ..................               ........",
"........               ..................               ........",
"........               ..................               ........",
"........               ..................               ........",
"........               ..................               ........",
"........               ..................               ........",
"........               ..................               ........",
"........               ..................               ........",
"........               ..................               ........",
"........               ..................               ........",
"........               .................                ........",
"........                                                ........",
"........                                                ........",
"........                                                ........",
"........                                                ........",
"........                                                ........",
"........                                                ........",
"........                                                ........",
"........                                                ........",
"........                                                ........",
"........                                                ........",
"........                                                ........",
"........                                                ........",
"........                                                ........",
"........               ..................               ........",
"........               ..................               ........",
"........               ..................               ........",
"........               ..................               ........",
"........               ..................               ........",
"........               ..................               ........",
"........               ..................               ........",
"........               ..................               ........",
"..........             ..................               ........",
".............          ..................               ........",
"...............        ..................               ........",
".................      ..................               ........",
"....................   ..................               ........",
"...................... ..................               ........",
".........................................               ........",
".........................................               ........",
".........................................               ........",
".........................................               ........",
".........................................               ........",
".........................................               ........",
".........................................               ........",
".........................................               ........",
"...........................................             ........",
"................................................................",
"................................................................",
"................................................................"
};
