/* XPM */
static char *bitcoin128[] = {
/* columns rows colors chars-per-pixel */
"128 128 2 1 ",
"  c #74ADE8",
". c None",
/* pixels */
"................................................................................................................................",
"................................................................................................................................",
"................................................................................................................................",
"................................................................................................................................",
"................................................................................................................................",
"................................................................................................................................",
"................                              ...................................                               ................",
"................                              ...................................                               ................",
"................                              ...................................                               ................",
"................                              ...................................                               ................",
"................                              ...................................                               ................",
"................                              ...................................                               ................",
"................                              ...................................                               ................",
"................                              ...................................                               ................",
"................                              ...................................                               ................",
"................                              ...................................                               ................",
"................                              ...................................                               ................",
"................                              ...................................                               ................",
"................                              ...................................                               ................",
"...............                               ...................................                               ................",
"...............                               ...................................                               ................",
"...............                               ...................................                               ................",
"...............                               ...................................                               ................",
"...............                               ...................................                               ................",
"...............                               ...................................                               ................",
"...............                               ...................................                               ................",
"...............                               ...................................                               ................",
"...............                               ...................................                               ................",
"...............                               ...................................                               ................",
"...............                               ...................................                               ................",
"...............                               ...................................                               ................",
"...............                               ...................................                               ................",
"...............                               ...................................                               ................",
"...............                               ...................................                               ................",
"...............                               ...................................                               ................",
"...............                               ...................................                               ................",
"...............                               ...................................                               ................",
"...............                               ...................................                               ................",
"...............                               ...................................                               ................",
"...............                               ...................................                               ................",
"...............                               ...................................                               ................",
"...............                               ...................................                               ................",
"...............                               ...................................                               ................",
"...............                               ...................................                               ................",
"...............                               ...................................                               ................",
"...............                               ...................................                               ................",
"...............                               ...................................                               ................",
"...............                               ...................................                               ................",
"...............                               ...................................                               ................",
"...............                                                             .  ..                               ................",
"...............                                                                                                 ................",
"...............                                                                                                 ................",
"...............                                                                                                 ................",
"...............                                                                                                 ................",
"...............                                                                                                 ................",
"...............                                                                                                 ................",
"...............                                                                                                 ................",
"...............                                                                                                 ................",
"...............                                                                                                 ................",
"...............                                                                                                 ................",
"...............                                                                                                 ................",
"...............                                                                                                 ................",
"...............                                                                                                 ................",
"...............                                                                                                 ................",
"...............                                                                                                 ................",
"...............                                                                                                 ................",
"...............                                                                                                 ................",
"...............                                                                                                 ................",
"...............                                                                                                 ................",
"...............                                                                                                 ................",
"...............                                                                                                 ................",
"...............                                                                                                 ................",
"...............                                                                                                 ................",
"...............                                                                                                 ................",
"...............                                                                                                 ................",
"...............                                                                                                 ................",
"...............                               ...................................                               ................",
"...............                               ...................................                               ................",
"...............                               ...................................                               ................",
"...............                               ...................................                               ................",
"...............                               ...................................                               ................",
"...............                               ...................................                               ................",
"...............                               ...................................                               ................",
"...............                               ...................................                               ................",
"...............                               ...................................                               ................",
"...............                               ...................................                               ................",
"...............                               ...................................                               ................",
"...............                               ...................................                               ................",
"...............                               ...................................                               ................",
"...............                               ...................................                               ................",
"................                              ...................................                               ................",
".................                             ...................................                               ................",
"....................                          ...................................                               ................",
"......................                        ...................................                               ................",
"........................                      ...................................                               ................",
"...........................                   ...................................                               ................",
".............................                 ...................................                               ................",
"...............................               ...................................                               ................",
"..................................            ...................................                               ................",
"....................................          ...................................                               ................",
"......................................        ...................................                               ................",
".........................................     ...................................                               ................",
"...........................................   ...................................                               ................",
"............................................. ...................................                               ................",
".................................................................................                               ................",
".................................................................................                               ................",
".................................................................................                               ................",
".................................................................................                               ................",
".................................................................................                               ................",
".................................................................................                               ................",
".................................................................................                               ................",
".................................................................................                               ................",
".................................................................................                               ................",
".................................................................................                               ................",
".................................................................................                               ................",
".................................................................................                               ................",
".................................................................................                               ................",
".................................................................................                               ................",
".................................................................................                               ................",
"...................................................................................                             ................",
".....................................................................................                           ................",
".......................................................................................                         ................",
"................................................................................................................................",
"................................................................................................................................",
"................................................................................................................................",
"................................................................................................................................",
"................................................................................................................................",
"................................................................................................................................"
};
