/* XPM */
static char *bitcoin24[] = {
/* columns rows colors chars-per-pixel */
"24 24 2 1 ",
"  c #74ADE8",
". c None",
/* pixels */
"........................",
"...      ......      ...",
"...      ......      ...",
"...      ......      ...",
"...      ......      ...",
"...      ......      ...",
"...      ......      ...",
"...      ......      ...",
"...      ......      ...",
"...                  ...",
"...                  ...",
"...                  ...",
"...                  ...",
"...                  ...",
"...      ......      ...",
"...      ......      ...",
"...      ......      ...",
"....     ......      ...",
"......   ......      ...",
"...............      ...",
"...............      ...",
"...............      ...",
"................     ...",
"........................"
};
