/* XPM */
static char *bitcoin48[] = {
/* columns rows colors chars-per-pixel */
"48 48 139 2 ",
"   c #000BFF",
".  c #000CFF",
"X  c #000DFF",
"o  c #0010FF",
"O  c #0012FF",
"+  c #0014FF",
"@  c #0016FF",
"#  c #0017FF",
"$  c #0019FF",
"%  c #001BFF",
"&  c #001CFF",
"*  c #001EFF",
"=  c #001FFF",
"-  c #0022FF",
";  c #0025FF",
":  c #0026FF",
">  c #0029FF",
",  c #002AFF",
"<  c #002CFF",
"1  c #002DFF",
"2  c #0030FF",
"3  c #0031FF",
"4  c #0034FF",
"5  c #0035FF",
"6  c #0038FF",
"7  c #0039FF",
"8  c #003BFF",
"9  c #003CFF",
"0  c #003FFF",
"q  c #0042FF",
"w  c #0043FF",
"e  c #0046FF",
"r  c #0047FF",
"t  c #0049FF",
"y  c #004AFF",
"u  c #004CFF",
"i  c #004DFF",
"p  c #004EFF",
"a  c #004FFF",
"s  c #0050FF",
"d  c #0051FF",
"f  c #0054FF",
"g  c #0055FF",
"h  c #0057FF",
"j  c #0058FF",
"k  c #0059FF",
"l  c #005AFF",
"z  c #005BFF",
"x  c #005CFF",
"c  c #005EFF",
"v  c #005FFF",
"b  c #0060FF",
"n  c #0062FF",
"m  c #0063FF",
"M  c #0064FF",
"N  c #0066FF",
"B  c #0067FF",
"V  c #0069FF",
"C  c #006AFF",
"Z  c #006BFF",
"A  c #006CFF",
"S  c #006DFF",
"D  c #006EFF",
"F  c #0070FF",
"G  c #0071FF",
"H  c #0074FF",
"J  c #0075FF",
"K  c #0077FF",
"L  c #0078FF",
"P  c #007AFF",
"I  c #007BFF",
"U  c #007CFF",
"Y  c #007EFF",
"T  c #007FFF",
"R  c #0081FF",
"E  c #0082FF",
"W  c #0083FF",
"Q  c #0085FF",
"!  c #0086FF",
"~  c #0087FF",
"^  c #008AFF",
"/  c #008BFF",
"(  c #008DFF",
")  c #008FFF",
"_  c #0090FF",
"`  c #0091FF",
"'  c #0094FF",
"]  c #0095FF",
"[  c #0098FF",
"{  c #009BFF",
"}  c #009CFF",
"|  c #009FFF",
" . c #00A2FF",
".. c #00A3FF",
"X. c #00A6FF",
"o. c #00A9FF",
"O. c #00AAFF",
"+. c #00ADFF",
"@. c #00AEFF",
"#. c #00B0FF",
"$. c #00B1FF",
"%. c #00B3FF",
"&. c #00B4FF",
"*. c #00B7FF",
"=. c #00BAFF",
"-. c #00BDFF",
";. c #00C0FF",
":. c #00C3FF",
">. c #00C6FF",
",. c #00C7FF",
"<. c #00C9FF",
"1. c #00CAFF",
"2. c #00CCFF",
"3. c #00CDFF",
"4. c #00CFFF",
"5. c #00D0FF",
"6. c #00D3FF",
"7. c #00D5FF",
"8. c #00D6FF",
"9. c #00D8FF",
"0. c #00DBFF",
"q. c #00DEFF",
"w. c #00E1FF",
"e. c #00E4FF",
"r. c #00E5FF",
"t. c #00E7FF",
"y. c #00EAFF",
"u. c #00EBFF",
"i. c #00ECFF",
"p. c #00EDFF",
"a. c #00EFFF",
"s. c #00F1FF",
"d. c #00F4FF",
"f. c #00F6FF",
"g. c #00F7FF",
"h. c #00F8FF",
"j. c #00F9FF",
"k. c #00FAFF",
"l. c None",
/* pixels */
"l.l.l.l.l.l.l.l.l.l.l.l.l.l.l.l.l.l.l.l.l.l.l.l.l.l.l.l.l.l.l.l.l.l.l.l.l.l.l.l.l.l.l.l.l.l.l.l.",
"l.l.l.l.l.l.l.l.l.l.l.l.l.l.l.l.l.l.l.l.l.l.l.l.l.l.l.l.l.l.l.l.l.l.l.l.l.l.l.l.l.l.l.l.l.l.l.l.",
"l.l.l.l.j.k.h.f.d.s.a.p.y.t.e.w.q.0.9.7.6.5.2.<.>.:.;.-.=.*.%.#.+.o.X. .| { [ ' _ ( ^ Q l.l.l.l.",
"l.l.l.j.k.h.f.d.s.a.p.u.t.r.w.q.0.9.7.6.5.3.<.>.:.;.-.=.*.%.$.+.O.X. .| { [ ' _ ( ^ ! E T l.l.l.",
"l.l.l.j.h.f.d.s.a.p.u.t.r.w.q.0.9.7.6.5.3.<.>.:.;.-.=.*.%.$.+.O.X. .| { [ ' _ ( ^ ! E T U l.l.l.",
"l.l.l.g.f.d.s.a.p.u.t.e.w.q.0.9.7.6.5.3.<.>.:.;.-.=.*.%.$.+.O.X. .| { [ ' _ ( ^ ! E T U L l.l.l.",
"l.l.l.f.d.s.a.p.u.t.e.w.q.0.9.7.6.5.3.<.>.:.;.-.=.*.%.$.+.o.X. .| { [ ' _ ( ^ ! E T U L H l.l.l.",
"l.l.l.d.s.a.p.u.t.r.w.q.0.9.7.6.5.3.<.>.:.;.-.=.*.%.$.+.o.X. .| { [ ' _ ( ^ ! E T U L H F l.l.l.",
"l.l.l.s.a.p.u.t.e.w.q.0.9.7.6.5.3.<.>.:.;.-.=.*.%.#.+.o.X. .| { [ ' _ ( ^ ! E T U L H F S l.l.l.",
"l.l.l.a.p.y.t.e.w.q.0.9.7.6.4.3.1.,.:.;.-.=.*.&.$.@.O.X...| } [ ] ` ( ^ ! E T U L H G S C l.l.l.",
"l.l.l.i.y.t.r.w.q.0.9.7.6.4.3.l.l.l.l.l.l.l.l.l.l.l.l.l.l.l.l.l.l.l.^ ! E T U L H G S C N l.l.l.",
"l.l.l.y.t.r.w.q.0.9.7.6.5.3.l.l.l.l.l.l.l.l.l.l.l.l.l.l.l.l.l.l.l.l.Q E T U L H G S C N m l.l.l.",
"l.l.l.t.r.w.q.0.9.7.6.5.3.1.l.l.l.l.l.l.l.l.l.l.l.l.l.l.l.l.l.l.l.l.R T U L H G S C N m v l.l.l.",
"l.l.l.r.w.q.0.9.7.6.5.3.<.>.l.l.l.l.l.l.l.l.l.l.l.l.l.l.l.l.l.l.l.l.Y U L H G S C N m v z l.l.l.",
"l.l.l.w.q.0.9.7.6.5.3.<.>.:.l.l.l.l.l.l.l.l.l.l.l.l.l.l.l.l.l.l.l.l.I L H F S C N m v z j l.l.l.",
"l.l.l.q.0.9.7.6.5.3.<.>.:.;.l.l.l.l.l.l.l.l.l.l.l.l.l.l.l.l.l.l.l.l.K H G S C N m v z j f l.l.l.",
"l.l.l.0.9.7.6.5.3.<.>.:.;.-.l.l.l.l.l.l.l.l.l.l.l.l.l.l.l.l.l.l.l.l.H G S C N m v z j f s l.l.l.",
"l.l.l.9.7.6.5.3.<.>.:.;.-.=.l.l.l.l.l.l.l.l.l.l.l.l.l.l.l.l.l.l.l.l.F S C N m v z j f d i l.l.l.",
"l.l.l.8.6.5.3.<.>.:.;.-.=.*.l.l.l.l.l.l.l.l.l.l.l.l.l.l.l.l.l.l.l.l.A C N m v z j f d i y l.l.l.",
"l.l.l.6.5.3.<.>.:.;.-.=.*.%.l.l.l.l.l.l.l.l.l.l.l.l.l.l.l.l.l.l.l.l.V N m v z j f d i t e l.l.l.",
"l.l.l.4.3.<.>.:.;.-.=.*.%.$.l.l.l.l.l.l.l.l.l.l.l.l.l.l.l.l.l.l.l.l.N m v z j f d i t e q l.l.l.",
"l.l.l.2.<.>.:.;.-.=.*.%.$.@.l.l.l.l.l.l.l.l.l.l.l.l.l.l.l.l.l.l.l.l.m v z j f d i t e q 0 l.l.l.",
"l.l.l.<.>.:.;.-.=.*.%.$.+.O.l.l.l.l.l.l.l.l.l.l.l.l.l.l.l.l.l.l.l.l.c z j f d i t e q 0 8 l.l.l.",
"l.l.l.,.:.;.-.=.*.%.$.+.o.X.l.l.l.l.l.l.l.l.l.l.l.l.l.l.l.l.l.l.l.l.l j f d i t e q 0 8 6 l.l.l.",
"l.l.l.:.;.-.=.*.%.$.+.o.X...l.l.l.l.l.l.l.l.l.l.l.l.l.l.l.l.l.l.l.l.j f d i t e q 0 8 6 4 l.l.l.",
"l.l.l.;.-.=.*.%.$.+.O.X. .| l.l.l.l.l.l.l.l.l.l.l.l.l.l.l.l.l.l.l.l.g d i t e q 0 8 6 4 2 l.l.l.",
"l.l.l.-.=.*.%.$.+.o.X. .| } l.l.l.l.l.l.l.l.l.l.l.l.l.l.l.l.l.l.l.l.s i t e q 0 8 6 4 3 < l.l.l.",
"l.l.l.=.*.%.$.+.o.X. .| { [ l.l.l.l.l.l.l.l.l.l.l.l.l.l.l.l.l.l.l.l.u y e q 0 8 6 4 3 1 > l.l.l.",
"l.l.l.*.%.$.+.O.X. .| { [ ] l.l.l.l.l.l.l.l.l.l.l.l.l.l.l.l.l.l.l.l.y e q 0 8 6 4 3 1 > ; l.l.l.",
"l.l.l.%.$.+.o.X. .| { [ ' ` l.l.l.l.l.l.l.l.l.l.l.l.l.l.l.l.l.l.l.l.r q 0 8 6 4 3 1 > : - l.l.l.",
"l.l.l.#.+.o.X. .| { [ ' _ ( ^ Q R Y P K H F A V N n c l h f a u y r w 0 8 6 4 3 1 > : - * l.l.l.",
"l.l.l.+.O.X. .| { [ ' _ ( ^ ! E T U L H G S C N m v z j f d i t e q 0 8 6 4 3 1 > : - * % l.l.l.",
"l.l.l.O.X. .| { [ ' _ ( ^ ! E T U L H G S C N m v z j f d i t e q 0 8 6 4 3 1 > : - * % # l.l.l.",
"l.l.l.X. .| { [ ' _ ( ^ ! E T U L H G S C N m v z j f d i t e q 0 8 6 4 3 1 > : - * % # + l.l.l.",
"l.l.l. .| { [ ' _ ( ^ ! E T U L H G S C N m v z j f d i t e q 0 8 6 4 3 1 > : - * % # + o l.l.l.",
"l.l.l.| { [ ' _ ( ^ ! E T U L H G S C N m v z j f d i t e q 0 8 6 4 3 1 > : - * % # + o . l.l.l.",
"l.l.l.{ [ ' _ ( ^ ! E T U L H G S C N m v z j f d i t e q 0 8 6 4 3 1 > ; - * % # + o . . l.l.l.",
"l.l.l.l.' _ ( ^ ! E T I L H F S C N m v z j f d i t e q 0 8 6 4 2 1 > : - * % # + o . . l.l.l.l.",
"l.l.l.l.l.) / ~ W T U L J G D Z B M b x k g d p y r w 0 9 7 5 3 1 , ; - * % # + o . . l.l.l.l.l.",
"l.l.l.l.l.l.l.l.l.l.l.l.l.l.l.l.l.l.l.l.l.l.l.l.l.l.l.l.l.l.l.l.l.l.= * % # + o . . l.l.l.l.l.l.",
"l.l.l.l.l.l.l.l.l.l.l.l.l.l.l.l.l.l.l.l.l.l.l.l.l.l.l.l.l.l.l.l.l.l.& % # + o .   l.l.l.l.l.l.l.",
"l.l.l.l.l.l.l.l.l.l.l.l.l.l.l.l.l.l.l.l.l.l.l.l.l.l.l.l.l.l.l.l.l.l.$ # + o .   l.l.l.l.l.l.l.l.",
"l.l.l.l.l.l.l.l.l.l.l.l.l.l.l.l.l.l.l.l.l.l.l.l.l.l.l.l.l.l.l.l.l.l.@ + o . . l.l.l.l.l.l.l.l.l.",
"l.l.l.l.l.l.l.l.l.l.l.l.l.l.l.l.l.l.l.l.l.l.l.l.l.l.l.l.l.l.l.l.l.l.O o . . l.l.l.l.l.l.l.l.l.l.",
"l.l.l.l.l.l.l.l.l.l.l.l.l.l.l.l.l.l.l.l.l.l.l.l.l.l.l.l.l.l.l.l.l.l.X . . l.l.l.l.l.l.l.l.l.l.l.",
"l.l.l.l.l.l.l.l.l.l.l.l.l.l.l.l.l.l.l.l.l.l.l.l.l.l.l.l.l.l.l.l.l.l..   l.l.l.l.l.l.l.l.l.l.l.l.",
"l.l.l.l.l.l.l.l.l.l.l.l.l.l.l.l.l.l.l.l.l.l.l.l.l.l.l.l.l.l.l.l.l.l.l.l.l.l.l.l.l.l.l.l.l.l.l.l.",
"l.l.l.l.l.l.l.l.l.l.l.l.l.l.l.l.l.l.l.l.l.l.l.l.l.l.l.l.l.l.l.l.l.l.l.l.l.l.l.l.l.l.l.l.l.l.l.l."
};
