/* XPM */
static char *bitcoin96[] = {
/* columns rows colors chars-per-pixel */
"96 96 47 1 ",
"  c #FE0000",
". c #0DA2F0",
"X c #14A5F1",
"o c #18A7F1",
"O c #1DA9F1",
"+ c #23ACF1",
"@ c #2AAEF2",
"# c #2EB0F2",
"$ c #34B3F2",
"% c #3BB6F2",
"& c #40B7F3",
"* c #43B9F3",
"= c #4CBCF3",
"- c #51BFF4",
"; c #56C1F4",
": c #5BC3F4",
"> c #63C6F5",
", c #67C8F5",
"< c #6BC9F5",
"1 c #73CCF5",
"2 c #79CFF6",
"3 c #7DD1F6",
"4 c #83D3F6",
"5 c #8BD6F7",
"6 c #8FD8F7",
"7 c #93DAF7",
"8 c #9BDDF7",
"9 c #9DDEF8",
"0 c #A1DFF7",
"q c #A1DFF8",
"w c #A1E0F7",
"e c #A5E1F8",
"r c #ABE4F8",
"t c #B2E6F8",
"y c #B6E8F9",
"u c #BCEAF9",
"i c #C4EEF9",
"p c #C9EFFA",
"a c #CCF1FA",
"s c #D4F4FA",
"d c #DAF6FA",
"f c #DEF8FB",
"g c #E3FAFB",
"h c #EBFDFB",
"j c #F3FFFC",
"k c #FDFFFC",
"l c None",
/* pixels */
"llllllllllllllllllllllllllllllllllllllllllllllllllllllllllllllllllllllllllllllllllllllllllllllll",
"llllllllllllllllllllllllllllllllllllllllllllllllllllllllllllllllllllllllllllllllllllllllllllllll",
"llllllllllllllllllllllllllllllllllllllllllllllllllllllllllllllllllllllllllllllllllllllllllllllll",
"llllllllllllllllllllllllllllllllllllllllllllllllllllllllllllllllllllllllllllllllllllllllllllllll",
"llllllllllllllllllllllllllllllllllllllllllllllllllllllllllllllllllllllllllllllllllllllllllllllll",
"llllllllllllllllllllllllllllllllllllllXX.XoO++++OoXXXo+lllllllllllllllllllllllllllllllllllllllll",
"llllllllllllllllllllllllllllllllllXX+$;17ryupapiute51-$OXX+lllllllllllllllllllllllllllllllllllll",
"lllllllllllllllllllllllllllllllXX$>8usauw61<,,<1247ruiir4:#oo+llllllllllllllllllllllllllllllllll",
"llllllllllllllllllllllllllllOX#<tsaw<*$%=>37eyiipiutretussi8:+X+llllllllllllllllllllllllllllllll",
"llllllllllllllllllllllllllOX*7sa5*@$:7igkkkjhdaiuuipsdfggghjhu3$o+llllllllllllllllllllllllllllll",
"llllllllllllllllllllllllOX=edr:+%1tgkkjsr5<-&$@@+++@#$*;17tahkks4$X+llllllllllllllllllllllllllll",
"lllllllllllllllllllllllX%wfe%+:rfkkgu4;$+OO+++@@@#@@+++OOO+%:5ihkf4@Xlllllllllllllllllllllllllll",
"lllllllllllllllllllllOO3dr%+1ugjha5=@O++@@llllllllllllllll@+OO@;7dka>o+lllllllllllllllllllllllll",
"llllllllllllllllllllX%ud:O<pdfgu<$++@@llllllllllllllllllllllll+OO%3ske$Xllllllllllllllllllllllll",
"llllllllllllllllll#X<gwO*uausu<@+@@llllllllllllllllllllllllllllll+o$3gf,OOllllllllllllllllllllll",
"lllllllllllllllll+O7g:X5drus3#O#@llllllllllllllllllllllllllllllllll+X%qjr%Xlllllllllllllllllllll",
"llllllllllllllll++ts$$ii6ar*O@@llllllllllllllllllllllllllllllllllllll+O>gg>X+lllllllllllllllllll",
"lllllllllllllllO@iyO:f77d1++#lllllllllllllllllllllllllllllllllllllllll@o*pk5+Ollllllllllllllllll",
"llllllllllllllO@prX3g1ra*O$lllllllllllllllllllllllllllllllllllllllllllllo$ykr$Olllllllllllllllll",
"lllllllllllll++irX7d:ut#+#lllllllllllllllllllllllllllllllllllllllllllllll+#yku%Ollllllllllllllll",
"llllllllllll++tyX7s=pw+#llllllllllllllllllllllllllllllllllllllllllllllllllO$iki%Olllllllllllllll",
"llllllllllllX7a+6s=a7O#llllllllllllllllllllllllllllllllllllllllllllllllllllO%skp%ollllllllllllll",
"lllllllllllX<g$4f*a9O#llllllllllllllllllllllllllllllllllllllllllllllllllllllo:gji$Olllllllllllll",
"llllllllll+&g--h*trO#lllllllllllllllllllllllllllllllllllllllllllllllllllllll@o4jjy++llllllllllll",
"llllllllllOu8$g>5a@@lllllllllllllllllllllllllllllllllllllllllllllllllllllllll++thj7O@lllllllllll",
"lllllllllX2s@p6-g%+lllllllllllllllllllllllllllllllllllllllllllllllllllllllllllO*dsj<olllllllllll",
"llllllll+$f-4p$g<O#llllllllllllllllllllllllllllllllllllllllllllllllllllllllllllX4spg%Ollllllllll",
"llllllllX9r*g&tqO#lllllllllllllllllllllllllllllllllllllllllllllllllllllllllllll++iegtO@lllllllll",
"lllllllO&f=y6-f$+lllllllllllllllllllllllllllllllllllllllllllllllllllllllllllllllX1p6k>olllllllll",
"lllllllX00-d$d1Ollllllllllllllllllllllllllllllllllllllllllllllllllllllllllllllll++i4ad$+llllllll",
"llllllO%d=i12i+@lllllllllllllllllllllllllllllllllllllllllllllllllllllllllllllllllX1i1k3Xllllllll",
"llllllX5r>s$d>+llllllllllllllllllllllllllllllllllllllllllllllllllllllllllllllllll+@s<if$+lllllll",
"llllll+a>y21i+@lllllllllllllllllllllllllllllllllllllllllllllllllllllllllllllllllllX6r<k4Xlllllll",
"lllllX>i:d%p<OllllllllllllllllllllllllllllllllllllllllllllllllllllllllllllllllllllO*s=da#+llllll",
"lllllXq75q:a$@lllllllllllllllllllllllllllllllllllllllllllllllllllllllllllllllllllllOi15k>ollllll",
"lllll+a>i:e7OllllllllllllllllllllllllllllllllllllllllllllllllllllllllllllllllllllllX4r=krOllllll",
"llllX-a<p&s-+llllllllllllllllllllllllllllllllllllllllllllllllllllllllllllllllllllllO-s%ag%Olllll",
"llllX3r5q>i@#lllllllllllllllllllllllllllllllllllllllllllllllllllllllllllllllllllllll@a-7k<olllll",
"llllXr5t<88ollllllllllllllllllllllllllllllllllllllllllllllllllllllllllllllllllllllllXt3:kqOlllll",
"llll+i2i-i>Ollllllllllllllllllllllllllllllllllllllllllllllllllllllllllllllllllllllll.6r%ha#+llll",
"lllO%a2i;a*+llllllllllllllllllllllllllllllllllllllllllllllllllllllllllllllllllllllllX<i#ah=Ollll",
"lllo=i4r,i++llllllllllllllllllllllllllllllllllllllllllllllllllllllllllllllllllllllllX;s#tk<Xllll",
"lllX<u794rOllllllllll  lllllllllllllllllll lllllllllllllllllllllllllllllllllllllllllO%d%7k4Ollll",
"lllX1tw587Ollllllllll  lllllllllllllllllll lll  lllllllllllllllllllllllllllllllllllll#a=2keOllll",
"lllX4rr3t3Xllllllllll  lllllllllllllllllll llllllllllllllllllllllllllllllllllllllllll+a;<ky@+lll",
"lll.7rt3u<Ollllllllll  lllllllllllllllllll llllllllllllllllllllllllllllllllllllllllll+p>:ki#+lll",
"lllX7ry4u:Ollllllllll  l   llllll    lllll lll  lll lllll lll ll   lll   llllllllllll+a,:ks$+lll",
"lll.7rt5i;Ollllllllll    l  llll   l  llll lll  lll lllll lll             lllllllllll+a>:kd%+lll",
"lllX4tt6p;Ollllllllll   lll  lll llll  lll lll  lll lllll lll  llll  lll  lllllllllll+i:>hd*+lll",
"lll.3tr7i;Ollllllllll  llll  ll  lllll lll lll  lll lllll lll  llll llll  lllllllllll#a;<gs*Olll",
"lllX<uwwu:Ollllllllll  llll  ll        lll lll  lll lllll lll  llll lllll lllllllllll$s*4da%+lll",
"lllX:i9ti:Xllllllllll  llll  ll  lllllllll lll  lll lllll lll  llll lllll llllllllllO=s$8au%+lll",
"lllO*p7up<Ollllllllll  llll  ll  lllllllll lll  lll lllll lll  llll lllll llllllllllX>a+ruu$+lll",
"llll#i5ia3Xllllllllll  llll  lll  llllllll lll  lll  lll  lll  llll lllll llllllllll.4y#iry+@lll",
"llllXt8ud7Ollllllllll  llll  lll       lll lll  lll       lll  llll lllll llllllllllXw7%irwOllll",
"llll.6rwgrO#llllllllllllllllllllll   lllll llllllllll  ll lllllllll lllll llllllllll+i,<yr5Ollll",
"llllX:i5hp#+lllllllllllllllllllllllllllllllllllllllllllllllllllllllllllllllllllllllO%s$w7u<Ollll",
"llll+$p4fg=OlllllllllllllllllllllllllllllllllllllllllllllllllllllllllllllllllllllllX1i@p3a*Ollll",
"lllllOr7uk<OlllllllllllllllllllllllllllllllllllllllllllllllllllllllllllllllllllllllXr5;i1u@@llll",
"lllllX2u5k9Ollllllllllllllllllllllllllllllllllllllllllllllllllllllllllllllllllllll+$s=9788Olllll",
"lllll+$a3gs$+lllllllllllllllllllllllllllllllllllllllllllllllllllllllllllllllllllllX1i$d;i>Olllll",
"llllllXr9ek:olllllllllllllllllllllllllllllllllllllllllllllllllllllllllllllllllllllou11y:a$+lllll",
"llllllX;a1k9O@lllllllllllllllllllllllllllllllllllllllllllllllllllllllllllllllllllo-d%a,99Ollllll",
"lllllllOu6uh%OlllllllllllllllllllllllllllllllllllllllllllllllllllllllllllllllllllXr7<a%d=+llllll",
"lllllllX>s1k4XllllllllllllllllllllllllllllllllllllllllllllllllllllllllllllllllllO=d=s>4u+@llllll",
"llllllllOu5rg$+lllllllllllllllllllllllllllllllllllllllllllllllllllllllllllllllllXy64i@s>+lllllll",
"llllllllo:s>h4ollllllllllllllllllllllllllllllllllllllllllllllllllllllllllllllllX:d:f*2i+@lllllll",
"llllllllloqr4h$+llllllllllllllllllllllllllllllllllllllllllllllllllllllllllllll++s2y7+f>+llllllll",
"lllllllll+$d1irX@lllllllllllllllllllllllllllllllllllllllllllllllllllllllllllllX7y5so8y+@llllllll",
"llllllllllX<s:h,XllllllllllllllllllllllllllllllllllllllllllllllllllllllllllllX;d4g%=g*+lllllllll",
"llllllllllloqy3h*ollllllllllllllllllllllllllllllllllllllllllllllllllllllllllO$a9s1Xs4+@lllllllll",
"lllllllllll++p8rd$Ollllllllllllllllllllllllllllllllllllllllllllllllllllllll++tus6.qi+#llllllllll",
"llllllllllllO%s8dp#Ollllllllllllllllllllllllllllllllllllllllllllllllllllll@o8fd9.1f%+lllllllllll",
"lllllllllllllO;drgi$Ollllllllllllllllllllllllllllllllllllllllllllllllllll@X4hh9X=g>Ollllllllllll",
"llllllllllllllX>daja%o#lllllllllllllllllllllllllllllllllllllllllllllllll+o3jj8X$f3O$llllllllllll",
"lllllllllllllllX:gghd:X@lllllllllllllllllllllllllllllllllllllllllllllll+O4jj6o$s7O#lllllllllllll",
"llllllllllllllllo;dhhh3O+lllllllllllllllllllllllllllllllllllllllllllllO+9kg1X$s8+@llllllllllllll",
"lllllllllllllllllo*ajhjt*X+llllllllllllllllllllllllllllllllllllllllllX%uki-.*d8O@lllllllllllllll",
"llllllllllllllllllO#ejhgd3+X@llllllllllllllllllllllllllllllllllllll+O,gj8$.>g4+#llllllllllllllll",
"lllllllllllllllllll++3ghiai>Oo+llllllllllllllllllllllllllllllllll+X$eka:XO5g<O#lllllllllllllllll",
"llllllllllllllllllll@o=yji8au>+X+llllllllllllllllllllllllllllll+X+3gg3@X%ia=O$llllllllllllllllll",
"llllllllllllllllllllllO+1fg54ai3$XX+llllllllllllllllllllllll+XX$3sg7%X+4g9@+#lllllllllllllllllll",
"lllllllllllllllllllllll+O$7gi11yar,$OXX+llllllllllllllll+oXX#:wfd5%Xo>ia:O@lllllllllllllllllllll",
"lllllllllllllllllllllllll+o&8ga4<7upr3:$+XXXXXOXooooXXo+#=1rfja2#XO:us5@O$llllllllllllllllllllll",
"lllllllllllllllllllllllllll+O*8ght437riiy942>;;==--:<38ydjkgw;+X#1ud7$O@llllllllllllllllllllllll",
"lllllllllllllllllllllllllllllOO%4skhar88euassdghhhhkkkkhi7:+X@:9sp4$O@llllllllllllllllllllllllll",
"lllllllllllllllllllllllllllllll+O#:9djkkgsaiadffdday93;$+@*3raae:#O@llllllllllllllllllllllllllll",
"lllllllllllllllllllllllllllllllll+OO$:5ydhgfpr953<>>>14euadu7>$++@llllllllllllllllllllllllllllll",
"llllllllllllllllllllllllllllllllllll+OO+%;17eyuaaasaair83:%+O++lllllllllllllllllllllllllllllllll",
"lllllllllllllllllllllllllllllllllllllll@+OOO++#$$%$$#+OOOO+@llllllllllllllllllllllllllllllllllll",
"lllllllllllllllllllllllllllllllllllllllllllll@+++++++#llllllllllllllllllllllllllllllllllllllllll",
"llllllllllllllllllllllllllllllllllllllllllllllllllllllllllllllllllllllllllllllllllllllllllllllll",
"llllllllllllllllllllllllllllllllllllllllllllllllllllllllllllllllllllllllllllllllllllllllllllllll",
"llllllllllllllllllllllllllllllllllllllllllllllllllllllllllllllllllllllllllllllllllllllllllllllll",
"llllllllllllllllllllllllllllllllllllllllllllllllllllllllllllllllllllllllllllllllllllllllllllllll",
"llllllllllllllllllllllllllllllllllllllllllllllllllllllllllllllllllllllllllllllllllllllllllllllll"
};
