/* XPM */
static char *bitcoin96[] = {
/* columns rows colors chars-per-pixel */
"96 96 2 1 ",
"  c #74ADE8",
". c None",
/* pixels */
"................................................................................................",
"................................................................................................",
"................................................................................................",
"................................................................................................",
"............                      ...........................                      .............",
"............                       ..........................                       ............",
"............                       ..........................                       ............",
"............                       ..........................                       ............",
"............                       ..........................                       ............",
"............                       ..........................                       ............",
"............                       ..........................                       ............",
"............                       ..........................                       ............",
"............                       ..........................                       ............",
"............                       ..........................                       ............",
"............                       ..........................                       ............",
"............                       ..........................                       ............",
"............                       ..........................                       ............",
"............                       ..........................                       ............",
"............                       ..........................                       ............",
"............                       ..........................                       ............",
"............                       ..........................                       ............",
"............                       ..........................                       ............",
"............                       ..........................                       ............",
"............                       ..........................                       ............",
"............                       ..........................                       ............",
"............                       ..........................                       ............",
"............                       ..........................                       ............",
"............                       ..........................                       ............",
"............                       ..........................                       ............",
"............                       ..........................                       ............",
"............                       ..........................                       ............",
"............                       ..........................                       ............",
"............                       ..........................                       ............",
"............                       ..........................                       ............",
"............                       ..........................                       ............",
"............                       ..........................                       ............",
"............                       ..........................                       ............",
"............                                                                        ............",
"............                                                                        ............",
"............                                                                        ............",
"............                                                                        ............",
"............                                                                        ............",
"............                                                                        ............",
"............                                                                        ............",
"............                                                                        ............",
"............                                                                        ............",
"............                                                                        ............",
"............                                                                        ............",
"............                                                                        ............",
"............                                                                        ............",
"............                                                                        ............",
"............                                                                        ............",
"............                                                                        ............",
"............                                                                        ............",
"............                                                                        ............",
"............                                                                        ............",
"............                                                                        ............",
"............                       ..........................                       ............",
"............                       ..........................                       ............",
"............                       ..........................                       ............",
"............                       ..........................                       ............",
"............                       ..........................                       ............",
"............                       ..........................                       ............",
"............                       ..........................                       ............",
"............                       ..........................                       ............",
"............                       ..........................                       ............",
"............                       ..........................                       ............",
"............                       ..........................                       ............",
".............                      ..........................                       ............",
"...............                    ..........................                       ............",
".................                  ..........................                       ............",
"....................               ..........................                       ............",
"......................             ..........................                       ............",
"........................           ..........................                       ............",
"...........................        ..........................                       ............",
".............................      ..........................                       ............",
"...............................    ..........................                       ............",
".............................................................                       ............",
".............................................................                       ............",
".............................................................                       ............",
".............................................................                       ............",
".............................................................                       ............",
".............................................................                       ............",
".............................................................                       ............",
".............................................................                       ............",
".............................................................                       ............",
".............................................................                       ............",
".............................................................                       ............",
".............................................................                       ............",
"..............................................................                      ............",
"................................................................                    ............",
"..................................................................                  ............",
"................................................................................................",
"................................................................................................",
"................................................................................................",
"................................................................................................"
};
