/* XPM */
static char *bitcoin64[] = {
/* columns rows colors chars-per-pixel */
"64 64 48 1 ",
"  c #FE0000",
". c #07A0F0",
"X c #0CA2F0",
"o c #13A5F1",
"O c #19A7F1",
"+ c #1CA9F1",
"@ c #23ACF1",
"# c #2AAEF1",
"$ c #2EB0F2",
"% c #34B2F2",
"& c #3BB5F2",
"* c #40B7F3",
"= c #43B9F3",
"- c #4CBCF3",
"; c #52BFF4",
": c #56C0F4",
"> c #5CC3F4",
", c #62C6F5",
"< c #67C8F5",
"1 c #6BC9F5",
"2 c #74CDF5",
"3 c #7ACFF6",
"4 c #7DD0F6",
"5 c #84D3F6",
"6 c #8AD6F7",
"7 c #8ED8F7",
"8 c #94DAF7",
"9 c #9BDDF7",
"0 c #9EDEF8",
"q c #A1DFF7",
"w c #A1DFF8",
"e c #A2E0F7",
"r c #A4E1F8",
"t c #ACE4F8",
"y c #B2E6F8",
"u c #B6E8F9",
"i c #BBEAF9",
"p c #C3EDF9",
"a c #C9EFFA",
"s c #CCF1FA",
"d c #D4F4FA",
"f c #DBF7FA",
"g c #DEF9FB",
"h c #E4FAFB",
"j c #ECFDFB",
"k c #F4FFFC",
"l c #FCFFFC",
"z c None",
/* pixels */
"zzzzzzzzzzzzzzzzzzzzzzzzzzzzzzzzzzzzzzzzzzzzzzzzzzzzzzzzzzzzzzzz",
"zzzzzzzzzzzzzzzzzzzzzzzzzzzzzzzzzzzzzzzzzzzzzzzzzzzzzzzzzzzzzzzz",
"zzzzzzzzzzzzzzzzzzzzzzzzzzzzzzzzzzzzzzzzzzzzzzzzzzzzzzzzzzzzzzzz",
"zzzzzzzzzzzzzzzzzzzzzzzzzzo@$%&%$@+Xzzzzzzzzzzzzzzzzzzzzzzzzzzzz",
"zzzzzzzzzzzzzzzzzzzzzz+=<58989998863>&@Xzzzzzzzzzzzzzzzzzzzzzzzz",
"zzzzzzzzzzzzzzzzzzzo-509521368ryuupasst4=ozzzzzzzzzzzzzzzzzzzzzz",
"zzzzzzzzzzzzzzzzzo>002:<9sggsut08880rpgkju:+zzzzzzzzzzzzzzzzzzzz",
"zzzzzzzzzzzzzzzX:e9>:9hks8,&#+oooooO@$=,8skp:ozzzzzzzzzzzzzzzzzz",
"zzzzzzzzzzzzzz#8e:,ykg8-@Oozzzzzzzzzzzzoo@:rht&Xzzzzzzzzzzzzzzzz",
"zzzzzzzzzzzzX;y2;0hs5%O+zzzzzzzzzzzzzzzzzzzo&qs2ozzzzzzzzzzzzzzz",
"zzzzzzzzzzzX2t-4ps6&OzzzzzzzzzzzzzzzzzzzzzzzzX;iy%zzzzzzzzzzzzzz",
"zzzzzzzzzzX50-0uy>+@zzzzzzzzzzzzzzzzzzzzzzzzzzz+9g>Xzzzzzzzzzzzz",
"zzzzzzzzzX68:tr0&ozzzzzzzzzzzzzzzzzzzzzzzzzzzzzzX4k2ozzzzzzzzzzz",
"zzzzzzzz.48>r98$@zzzzzzzzzzzzzzzzzzzzzzzzzzzzzzzzX4l5ozzzzzzzzzz",
"zzzzzzzz>r>r88+zzzzzzzzzzzzzzzzzzzzzzzzzzzzzzzzzzzo7l5ozzzzzzzzz",
"zzzzzzz&t,r59+zzzzzzzzzzzzzzzzzzzzzzzzzzzzzzzzzzzzz+yl2ozzzzzzzz",
"zzzzzzo0294r#zzzzzzzzzzzzzzzzzzzzzzzzzzzzzzzzzzzzzzz&fh;ozzzzzzz",
"zzzzzz1865r-+zzzzzzzzzzzzzzzzzzzzzzzzzzzzzzzzzzzzzzzX2ha%zzzzzzz",
"zzzzz@r4882ozzzzzzzzzzzzzzzzzzzzzzzzzzzzzzzzzzzzzzzzz#rd9ozzzzzz",
"zzzzz2884q@zzzzzzzzzzzzzzzzzzzzzzzzzzzzzzzzzzzzzzzzzzX1rd:zzzzzz",
"zzzz@9650:ozzzzzzzzzzzzzzzzzzzzzzzzzzzzzzzzzzzzzzzzzzz#0tu+zzzzz",
"zzzz,9848+zzzzzzzzzzzzzzzzzzzzzzzzzzzzzzzzzzzzzzzzzzzzX37d>zzzzz",
"zzzo6968>zzzzzzzzzzzzzzzzzzzzzzzzzzzzzzzzzzzzzzzzzzzzzz-9wyozzzz",
"zzz%9850#zzzzzzzzzzzzzzzzzzzzzzzzzzzzzzzzzzzzzzzzzzzzzz+93f=zzzz",
"zzz:w863ozzzzzzzzzzzzzzzzzzzzzzzzzzzzzzzzzzzzzzzzzzzzzzz53a5Xzzz",
"zzz2r68;zzzzzzzzzzzzzzzzzzzzzzzzzzzzzzzzzzzzzzzzzzzzzzzz>60iOzzz",
"zzo6r59$zzzzzzzzzzzzzzzzzzzzzzzzzzzzzzzzzzzzzzzzzzzzzzzz&92h%zzz",
"zz@9r66Ozzzzzzzzzzzzzzzzzzzzzzzzzzzzzzzzzzzzzzzzzzzzzzzz#0<h:zzz",
"zz%0084ozzzzzz zzzzzzzzzzzzz zz zzzzzzzzzzzzzzzzzzzzzzzz+9,h2Xzz",
"zz&r90<zzzzzzz zzzzzzzzzzzzz zz zzzzzzzzzzzzzzzzzzzzzzzzo8>d8ozz",
"zz*t0r:zzzzzzz zzzzzzzzzzzzz zzzzzzzzzzzzzzzzzzzzzzzzzzzX8,srozz",
"zz*yrt:zzzzzzz     zzz    zz zz zz zzz zz        zzzzzzzX8,syOzz",
"zz&tqy-zzzzzzz  zz zz zzz zz zz zz zzz zz zz  zz zzzzzzzX8>sy+zz",
"zz%rru;zzzzzzz zzz zz     zz zz zz zzz zz zzz zz zzzzzzzo9>pr+zz",
"zz@0ti;zzzzzzz zzz zz zzzzzz zz zz zzz zz zzz zz zzzzzzz@0>s8+zz",
"zzO7ts,zzzzzzz zzz zz zzzzzz zz zz zz  zz zzz zz zzzzzzz&0,s5ozz",
"zzX4rf2ozzzzzz zzz zzz    zz zz zz     zz zzz zz zzzzzzz:71p2ozz",
"zzz>rd8ozzzzzzzzzzzzzzzzzzzzzzzzzzzzzzzzzzzzzzzzzzzzzzzz346u,zzz",
"zzz&0pi@zzzzzzzzzzzzzzzzzzzzzzzzzzzzzzzzzzzzzzzzzzzzzzzo919w=zzz",
"zzzO8th&zzzzzzzzzzzzzzzzzzzzzzzzzzzzzzzzzzzzzzzzzzzzzzz&02w8#zzz",
"zzzz<qf2Xzzzzzzzzzzzzzzzzzzzzzzzzzzzzzzzzzzzzzzzzzzzzzz26685ozzz",
"zzzz%0uuOzzzzzzzzzzzzzzzzzzzzzzzzzzzzzzzzzzzzzzzzzzzzz+9589;zzzz",
"zzzzo3wd-zzzzzzzzzzzzzzzzzzzzzzzzzzzzzzzzzzzzzzzzzzzzz,9740@zzzz",
"zzzzz&wu0ozzzzzzzzzzzzzzzzzzzzzzzzzzzzzzzzzzzzzzzzzzz+97661ozzzz",
"zzzzzX30p=zzzzzzzzzzzzzzzzzzzzzzzzzzzzzzzzzzzzzzzzzzX<rr,r#zzzzz",
"zzzzzz@qrrozzzzzzzzzzzzzzzzzzzzzzzzzzzzzzzzzzzzzzzzz%rt<71ozzzzz",
"zzzzzzz;tt3Xzzzzzzzzzzzzzzzzzzzzzzzzzzzzzzzzzzzzzzzo7p6:r+zzzzzz",
"zzzzzzzX2tp:Xzzzzzzzzzzzzzzzzzzzzzzzzzzzzzzzzzzzzzo1dr&u=zzzzzzz",
"zzzzzzzzo6as-ozzzzzzzzzzzzzzzzzzzzzzzzzzzzzzzzzzzX:hu#r1ozzzzzzz",
"zzzzzzzzz@8hf-XzzzzzzzzzzzzzzzzzzzzzzzzzzzzzzzzzX-js@86ozzzzzzzz",
"zzzzzzzzzz@8lh1ozzzzzzzzzzzzzzzzzzzzzzzzzzzzzzzX:ji+59+zzzzzzzzz",
"zzzzzzzzzzz+6kk9%Xzzzzzzzzzzzzzzzzzzzzzzzzzzzzo5k8o89+zzzzzzzzzz",
"zzzzzzzzzzzzo<hki1@zzzzzzzzzzzzzzzzzzzzzzzzz.&yg:@r7+zzzzzzzzzzz",
"zzzzzzzzzzzzzo*uhp0<$XzzzzzzzzzzzzzzzzzzzzX@5d9+-u2ozzzzzzzzzzzz",
"zzzzzzzzzzzzzzz@2pir92=+XzzzzzzzzzzzzzzXo&5ie%@7y-ozzzzzzzzzzzzz",
"zzzzzzzzzzzzzzzzo%5ytr082:&@+oXXXXXoO#;5ua7&@4y4@zzzzzzzzzzzzzzz",
"zzzzzzzzzzzzzzzzzzo&6iputtr08655558taddt<%=5y6&ozzzzzzzzzzzzzzzz",
"zzzzzzzzzzzzzzzzzzzzo%2ydhgfddghhday6<::4rr2%ozzzzzzzzzzzzzzzzzz",
"zzzzzzzzzzzzzzzzzzzzzzX+&19usauyw87679082=@ozzzzzzzzzzzzzzzzzzzz",
"zzzzzzzzzzzzzzzzzzzzzzzzzoo@%=:<121<:=$Oozzzzzzzzzzzzzzzzzzzzzzz",
"zzzzzzzzzzzzzzzzzzzzzzzzzzzzzzzzoXzzzzzzzzzzzzzzzzzzzzzzzzzzzzzz",
"zzzzzzzzzzzzzzzzzzzzzzzzzzzzzzzzzzzzzzzzzzzzzzzzzzzzzzzzzzzzzzzz",
"zzzzzzzzzzzzzzzzzzzzzzzzzzzzzzzzzzzzzzzzzzzzzzzzzzzzzzzzzzzzzzzz",
"zzzzzzzzzzzzzzzzzzzzzzzzzzzzzzzzzzzzzzzzzzzzzzzzzzzzzzzzzzzzzzzz"
};
