/* XPM */
static char *bitcoin48x48[] = {
/* columns rows colors chars-per-pixel */
"48 48 45 1 ",
"  c #FE0000",
". c #0BA2F0",
"X c #13A5F0",
"o c #18A7F1",
"O c #1DA9F1",
"+ c #24ACF1",
"@ c #2AAEF2",
"# c #2EB0F2",
"$ c #33B2F2",
"% c #3CB6F3",
"& c #40B7F3",
"* c #44B9F3",
"= c #4ABCF3",
"- c #52BEF4",
"; c #55C0F4",
": c #5BC2F4",
"> c #63C6F4",
", c #67C8F5",
"< c #6CCAF5",
"1 c #74CDF5",
"2 c #79CFF5",
"3 c #7DD0F6",
"4 c #84D3F6",
"5 c #8BD6F7",
"6 c #8FD8F7",
"7 c #94DAF7",
"8 c #9BDDF7",
"9 c #9FDEF8",
"0 c #A1DFF7",
"q c #A1DFF8",
"w c #A2E0F7",
"e c #A5E1F8",
"r c #ACE4F8",
"t c #B3E6F9",
"y c #B6E8F9",
"u c #BCEAF9",
"i c #C4EEF9",
"p c #CCF1FA",
"a c #D4F5FA",
"s c #DAF6FA",
"d c #DDF8FB",
"f c #EEFEFB",
"g c #F3FEFC",
"h c #FEFFFC",
"j c None",
/* pixels */
"jjjjjjjjjjjjjjjjjjjjjjjjjjjjjjjjjjjjjjjjjjjjjjjj",
"jjjjjjjjjjjjjjjjjjjjjjjjjjjjjjjjjjjjjjjjjjjjjjjj",
"jjjjjjjjjjjjjjjjjjjj#%%%$@jjjjjjjjjjjjjjjjjjjjjj",
"jjjjjjjjjjjjjjjj&>1344677751=@jjjjjjjjjjjjjjjjjj",
"jjjjjjjjjjjjj+>3336etyyttyupdp8=.jjjjjjjjjjjjjjj",
"jjjjjjjjjjjj>423epu82;&%$$%*:4uar-jjjjjjjjjjjjjj",
"jjjjjjjjjj%431taw;@.jjjjjjjjjjX%4u7@jjjjjjjjjjjj",
"jjjjjjjjj;6<7p8%Xjjjjjjjjjjjjjjjj@3r>jjjjjjjjjjj",
"jjjjjjjj>5<rr;Xjjjjjjjjjjjjjjjjjjjj&t7Xjjjjjjjjj",
"jjjjjjj,51r6$jjjjjjjjjjjjjjjjjjjjjjjOtrOjjjjjjjj",
"jjjjjj;61e4+jjjjjjjjjjjjjjjjjjjjjjjjjXiyOjjjjjjj",
"jjjjj$6394+jjjjjjjjjjjjjjjjjjjjjjjjjjj@srXjjjjjj",
"jjjjj4476#jjjjjjjjjjjjjjjjjjjjjjjjjjjjj-f4.jjjjj",
"jjjj;757*jjjjjjjjjjjjjjjjjjjjjjjjjjjjjjX5d;jjjjj",
"jjjO557<jjjjjjjjjjjjjjjjjjjjjjjjjjjjjjjj&ty@jjjj",
"jjj-855#jjjjjjjjjjjjjjjjjjjjjjjjjjjjjjjjj2u2jjjj",
"jjj276>jjjjjjjjjjjjjjjjjjjjjjjjjjjjjjjjjj-9t@jjj",
"jj$765%jjjjjjjjjjjjjjjjjjjjjjjjjjjjjjjjjj$4y<jjj",
"jj-q52jjjjjjjjjjjjjjjjjjjjjjjjjjjjjjjjjjjj19q.jj",
"jj<q7:jjjjjjjjjjjjjjjjjjjjjjjjjjjjjjjjjjjj>5u#jj",
"jj497&jjjjjjjjjjjjjjjjjjjjjjjjjjjjjjjjjjjj;4u;jj",
"jj5q5@jjjjjjjjjjjjjjj j jjjjjjjjjjjjjjjjjj=3u1jj",
"jO7e4+jjjjj jjjjjjjjj jjjjjjjjjjjjjjjjjjjj*3t5jj",
"j+7t4ojjjjj   jj   jj j j jj jj   j  jjjjj*3t8jj",
"jO7t4jjjjjj j jj j  j j j jj jj j jj jjjjj&3r8jj",
"jj4y4Xjjjjj jjjj j jj j j jj jjjj jj jjjjj-3r5jj",
"jj1i8ojjjjj jjjj jjjj j j jj jjjj jj jjjjj>3r2jj",
"jj>ut@jjjjjjjjjjj  jjjj jj   jjjjjjj jjjjj<3r>jj",
"jj*rp%jjjjjjjjjjjjjjjjjjjjjjjjjjjjjjjjjjjj34r=jj",
"jj@5a>jjjjjjjjjjjjjjjjjjjjjjjjjjjjjjjjjjj%458$jj",
"jjj<i8.jjjjjjjjjjjjjjjjjjjjjjjjjjjjjjjjjj,574Xjj",
"jjj&0u$jjjjjjjjjjjjjjjjjjjjjjjjjjjjjjjjj+467;jjj",
"jjjj2i1jjjjjjjjjjjjjjjjjjjjjjjjjjjjjjjjj;e45#jjj",
"jjjj%er$jjjjjjjjjjjjjjjjjjjjjjjjjjjjjjj@774,jjjj",
"jjjjj,t4.jjjjjjjjjjjjjjjjjjjjjjjjjjjjjj1u<6@jjjj",
"jjjjjo4u>jjjjjjjjjjjjjjjjjjjjjjjjjjjjj;p<4;jjjjj",
"jjjjjj@9s;jjjjjjjjjjjjjjjjjjjjjjjjjjj%d4<2jjjjjj",
"jjjjjjj$yg,.jjjjjjjjjjjjjjjjjjjjjjjj*d4:5ojjjjjj",
"jjjjjjjj@th7@jjjjjjjjjjjjjjjjjjjjjj,a,:6Ojjjjjjj",
"jjjjjjjjjO6gu;@jjjjjjjjjjjjjjjjjj$8t=15Ojjjjjjjj",
"jjjjjjjjjj.;ii7>$jjjjjjjjjjjjjj%3w1*51Xjjjjjjjjj",
"jjjjjjjjjjjj@1ry83;&#O.jj.X@=178<=16=jjjjjjjjjjj",
"jjjjjjjjjjjjjj$1riiye8788ertr71:35>Xjjjjjjjjjjjj",
"jjjjjjjjjjjjjjjj#>7usddaiy953333-Ojjjjjjjjjjjjjj",
"jjjjjjjjjjjjjjjjjj.@*:,111<,:=#jjjjjjjjjjjjjjjjj",
"jjjjjjjjjjjjjjjjjjjjjjjjjjjjjjjjjjjjjjjjjjjjjjjj",
"jjjjjjjjjjjjjjjjjjjjjjjjjjjjjjjjjjjjjjjjjjjjjjjj",
"jjjjjjjjjjjjjjjjjjjjjjjjjjjjjjjjjjjjjjjjjjjjjjjj"
};
