/* XPM */
static char *squorum64[] = {
/* columns rows colors chars-per-pixel */
"64 64 179 2 ",
"   c #000BFF",
".  c #000CFF",
"X  c #000DFF",
"o  c #000EFF",
"O  c #0010FF",
"+  c #0011FF",
"@  c #0014FF",
"#  c #0016FF",
"$  c #0018FF",
"%  c #0019FF",
"&  c #001BFF",
"*  c #001CFF",
"=  c #001DFF",
"-  c #001EFF",
";  c #0020FF",
":  c #0021FF",
">  c #0023FF",
",  c #0024FF",
"<  c #0026FF",
"1  c #0028FF",
"2  c #0029FF",
"3  c #002AFF",
"4  c #002BFF",
"5  c #002CFF",
"6  c #002EFF",
"7  c #002FFF",
"8  c #0030FF",
"9  c #0031FF",
"0  c #0032FF",
"q  c #0034FF",
"w  c #0035FF",
"e  c #0037FF",
"r  c #0038FF",
"t  c #0039FF",
"y  c #003AFF",
"u  c #003CFF",
"i  c #003DFF",
"p  c #003FFF",
"a  c #0041FF",
"s  c #0042FF",
"d  c #0044FF",
"f  c #0045FF",
"g  c #0047FF",
"h  c #0048FF",
"j  c #0049FF",
"k  c #004AFF",
"l  c #004CFF",
"z  c #004DFF",
"x  c #004EFF",
"c  c #004FFF",
"v  c #0051FF",
"b  c #0052FF",
"n  c #0053FF",
"m  c #0054FF",
"M  c #0055FF",
"N  c #0057FF",
"B  c #0058FF",
"V  c #0059FF",
"C  c #005AFF",
"Z  c #005BFF",
"A  c #005CFF",
"S  c #005DFF",
"D  c #005FFF",
"F  c #0060FF",
"G  c #0062FF",
"H  c #0063FF",
"J  c #0065FF",
"K  c #0067FF",
"L  c #006AFF",
"P  c #006BFF",
"I  c #006CFF",
"U  c #006DFF",
"Y  c #006EFF",
"T  c #006FFF",
"R  c #0071FF",
"E  c #0072FF",
"W  c #0074FF",
"Q  c #0075FF",
"!  c #0077FF",
"~  c #0079FF",
"^  c #007AFF",
"/  c #007DFF",
"(  c #007FFF",
")  c #0082FF",
"_  c #0083FF",
"`  c #0084FF",
"'  c #0085FF",
"]  c #0086FF",
"[  c #0087FF",
"{  c #008AFF",
"}  c #008BFF",
"|  c #008DFF",
" . c #008FFF",
".. c #0090FF",
"X. c #0091FF",
"o. c #0092FF",
"O. c #0093FF",
"+. c #0094FF",
"@. c #0096FF",
"#. c #0097FF",
"$. c #0098FF",
"%. c #0099FF",
"&. c #009CFF",
"*. c #009DFF",
"=. c #009FFF",
"-. c #00A1FF",
";. c #00A2FF",
":. c #00A4FF",
">. c #00A5FF",
",. c #00A6FF",
"<. c #00A7FF",
"1. c #00A9FF",
"2. c #00AAFF",
"3. c #00ACFF",
"4. c #00ADFF",
"5. c #00AEFF",
"6. c #00AFFF",
"7. c #00B0FF",
"8. c #00B1FF",
"9. c #00B2FF",
"0. c #00B3FF",
"q. c #00B5FF",
"w. c #00B6FF",
"e. c #00B8FF",
"r. c #00B9FF",
"t. c #00BAFF",
"y. c #00BBFF",
"u. c #00BCFF",
"i. c #00BDFF",
"p. c #00BEFF",
"a. c #00BFFF",
"s. c #00C0FF",
"d. c #00C1FF",
"f. c #00C2FF",
"g. c #00C3FF",
"h. c #00C4FF",
"j. c #00C6FF",
"k. c #00C7FF",
"l. c #00C8FF",
"z. c #00C9FF",
"x. c #00CAFF",
"c. c #00CBFF",
"v. c #00CDFF",
"b. c #00CEFF",
"n. c #00CFFF",
"m. c #00D0FF",
"M. c #00D1FF",
"N. c #00D2FF",
"B. c #00D4FF",
"V. c #00D5FF",
"C. c #00D6FF",
"Z. c #00D7FF",
"A. c #00D8FF",
"S. c #00D9FF",
"D. c #00DAFF",
"F. c #00DBFF",
"G. c #00DCFF",
"H. c #00DDFF",
"J. c #00DFFF",
"K. c #00E1FF",
"L. c #00E3FF",
"P. c #00E4FF",
"I. c #00E6FF",
"U. c #00E8FF",
"Y. c #00EBFF",
"T. c #00ECFF",
"R. c #00EDFF",
"E. c #00EEFF",
"W. c #00EFFF",
"Q. c #00F0FF",
"!. c #00F1FF",
"~. c #00F3FF",
"^. c #00F5FF",
"/. c #00F6FF",
"(. c #00F7FF",
"). c #00F8FF",
"_. c #00F9FF",
"`. c #00FAFF",
"'. c None",
/* pixels */
"'.'.'.'.'.'.'.'.'.'.'.'.'.'.'.'.'.'.'.'.'.'.'.'.'.'.'.'.'.'.'.'.'.'.'.'.'.'.'.'.'.'.'.'.'.'.'.'.'.'.'.'.'.'.'.'.'.'.'.'.'.'.'.'.",
"'.'.'.'.'.'.'.'.'.'.'.'.'.'.'.'.'.'.'.'.'.'.'.'.'.'.'.'.'.'.'.'.'.'.'.'.'.'.'.'.'.'.'.'.'.'.'.'.'.'.'.'.'.'.'.'.'.'.'.'.'.'.'.'.",
"'.'.'.'.'.'.'.).).(./.^.~.!.W.E.T.Y.U.I.L.K.J.G.D.Z.C.B.M.n.v.x.l.j.g.d.a.i.t.e.q.0.8.5.3.1.,.:.-.=.&.%.@.+.X. .| '.'.'.'.'.'.'.",
"'.'.'.'.'.'.`.`.)./.^.~.!.Q.E.T.Y.U.I.P.K.J.H.D.A.C.B.N.m.b.c.l.j.h.f.s.i.t.e.w.0.9.6.3.2.<.:.-.=.&.%.#.+.X. .| { [ ` '.'.'.'.'.",
"'.'.'.'.'.`.`.)./.^.~.!.Q.R.T.Y.U.I.P.K.J.H.D.A.C.B.N.n.b.c.l.k.h.f.a.i.t.e.w.0.9.6.3.2.<.:.-.=.&.%.#.+.X. .| { [ ` ) ( '.'.'.'.",
"'.'.'.'._.`.)./.^.~.!.Q.E.T.Y.U.I.P.K.J.H.D.A.C.B.N.m.b.c.l.j.h.f.s.i.t.e.w.0.9.6.3.2.<.:.-.=.*.%.#.+.X. .| { [ ` ) ( / '.'.'.'.",
"'.'.'.'._.)./.^.~.!.Q.R.T.Y.U.I.P.K.J.H.D.A.C.B.N.m.b.c.l.j.h.f.a.i.t.r.w.0.9.6.3.2.<.:.-.=.&.%.#.+.X. .| { [ ` ) ( / ~ '.'.'.'.",
"'.'.'.'.(./.^.~.!.Q.R.T.Y.U.I.P.K.J.H.D.A.C.B.N.m.b.c.l.j.h.f.s.i.t.e.w.0.9.6.3.2.<.:.-.=.&.%.#.+.X. .| { [ ` ) ( / ^ ! Q '.'.'.",
"'.'.'.'./.^.~.!.Q.E.T.Y.U.I.P.K.J.H.D.A.C.B.N.n.b.c.l.k.h.f.s.i.t.r.w.0.9.6.3.2.<.:.-.=.&.%.#.+.X. .| { [ ` ) ( / ^ ! W E '.'.'.",
"'.'.'.'.^.~.!.Q.E.T.Y.U.I.P.K.J.H.D.A.C.B.N.n.b.c.l.j.h.f.s.i.t.e.w.0.9.6.3.2.<.:.-.=.&.%.#.+.X. .| { [ ` ) ( / ^ ! W R Y '.'.'.",
"'.'.'.'.~.!.Q.E.T.Y.U.I.P.K.J.H.D.A.C.B.N.m.b.c.z.k.h.f.a.i.t.r.w.0.9.6.3.2.<.:.-.=.&.%.#.+.X. .| { [ ` ) ( / ^ ! W E Y I '.'.'.",
"'.'.'.'.!.Q.R.T.Y.U.I.P.K.J.H.D.A.C.B.N.n.b.c.l.j.h.f.s.i.t.e.w.0.8.6.3.2.<.:.-.=.&.%.#.+.X. .| { [ ` ) ( / ^ ! W R Y U L '.'.'.",
"'.'.'.'.Q.E.T.Y.U.I.P.K.J.H.D.A.C.B.N.n.b.c.l.k.h.d.s.i.y.r.w.0.9.6.3.2.<.:.-.=.*.%.#.+.X. .| { [ ` ) ( / ^ ! W E Y U L K '.'.'.",
"'.'.'.'.R.T.Y.U.I.P.K.J.H.D.A.C.B.N.n.v.'.'.'.'.'.'.'.'.'.'.'.'.'.'.'.'.'.'.'.'.'.'.'.'...| { [ ` ) ( / ~ ! W E Y U L K J '.'.'.",
"'.'.'.'.T.Y.U.I.P.K.J.H.D.A.C.B.N.n.v.'.'.'.'.'.'.'.'.'.'.'.'.'.'.'.'.'.'.'.'.'.'.'.'.'.'.{ [ ` ) ( / ^ ! W E Y U L K J H '.'.'.",
"'.'.'.'.Y.U.I.P.K.J.H.D.A.C.B.N.n.b.c.'.'.'.'.'.'.'.'.'.'.'.'.'.'.'.'.'.'.'.'.'.'.'.'.'.'.'.` ) ( / ^ ! W R Y U L K J G F '.'.'.",
"'.'.'.'.U.I.P.K.J.H.D.A.C.B.N.m.b.c.z.'.'.'.'.'.'.'.'.'.'.'.'.'.'.'.'.'.'.'.'.'.'.'.'.'.'.'.) ( / ^ ! W E Y U L K J G D S '.'.'.",
"'.'.'.'.I.P.K.J.H.D.A.C.B.N.n.b.c.l.j.'.'.'.'.'.'.'.'.'.'.'.'.'.'.'.'.'.'.'.'.'.'.'.'.'.'.'.( / ~ ! W E Y U L K J G D A Z '.'.'.",
"'.'.'.'.P.K.J.H.D.A.C.B.N.m.b.c.z.j.g.'.'.'.'.'.'.'.'.'.'.'.'.'.'.'.'.'.'.'.'.'.'.'.'.'.'.'./ ^ ! W E Y U L K J G D A C V '.'.'.",
"'.'.'.'.K.J.H.D.A.C.B.N.n.b.c.l.j.h.s.'.'.'.'.'.'.'.'.'.'.'.'.'.'.'.'.'.'.'.'.'.'.'.'.'.'.'.~ ! W E Y U L K J G D A C N M '.'.'.",
"'.'.'.'.J.H.D.A.C.B.N.m.b.c.l.j.h.d.a.'.'.'.'.'.'.'.'.'.'.'.'.'.'.'.'.'.'.'.'.'.'.'.'.'.'.'.! W E Y U L K J G D A C N m n '.'.'.",
"'.'.'.'.G.D.A.C.B.N.n.b.c.l.k.h.f.a.p.'.'.'.'.'.'.'.'.'.'.'.'.'.'.'.'.'.'.'.'.'.'.'.'.'.'.'.W E Y U L K J G D A C N M v x '.'.'.",
"'.'.'.'.F.A.C.B.N.m.b.c.z.j.h.f.s.i.u.'.'.'.'.'.'.'.'.'.'.'.'.'.'.'.'.'.'.'.'.'.'.'.'.'.'.'.E Y U L K J G D A C N M b x z '.'.'.",
"'.'.'.'.S.C.B.N.n.b.c.l.k.h.f.s.i.t.t.'.'.'.'.'.'.'.'.'.'.'.'.'.'.'.'.'.'.'.'.'.'.'.'.'.'.'.Y U L K J G D A C N M b c l l '.'.'.",
"'.'.'.'.C.B.N.m.b.c.l.j.h.f.s.i.y.e.w.'.'.'.'.'.'.'.'.'.'.'.'.'.'.'.'.'.'.'.'.'.'.'.'.'.'.'.U L K J G D A C N M b c l j k '.'.'.",
"'.'.'.'.V.N.n.b.c.l.k.h.f.s.i.t.e.w.0.'.'.'.'.'.'.'.'.'.'.'.'.'.'.'.'.'.'.'.'.'.'.'.'.'.'.'.L K J G D A C N M b c l j g g '.'.'.",
"'.'.'.'.M.m.b.c.z.j.h.f.a.i.t.e.w.0.8.'.'.'.'.'.'.'.'.'.'.'.'.'.'.'.'.'.'.'.'.'.'.'.'.'.'.'.K J G D A C N M b c l j g d s '.'.'.",
"'.'.'.'.n.b.c.l.k.h.f.s.i.t.r.w.0.8.7.'.'.'.'.'.'.'.'.'.'.'.'.'.'.'.'.'.'.'.'.'.'.'.'.'.'.'.J G D A C N M b c l j g d a p '.'.'.",
"'.'.'.'.v.c.l.j.h.f.s.i.y.e.w.0.9.6.5.'.'.'.'.'.'.'.'.'.'.'.'.'.'.'.'.'.'.'.'.'.'.'.'.'.'.'.G D A C N M b c l j g d s p i '.'.'.",
"'.'.'.'.x.l.j.h.f.s.i.t.r.w.0.9.6.3.2.'.'.'.'.'.'.'.'.'.'.'.'.'.'.'.'.'.'.'.'.'.'.'.'.'.'.'.D A C N M b c l j g d s p u t '.'.'.",
"'.'.'.'.z.j.h.f.s.i.t.e.w.0.9.6.3.2.<.'.'.'.'.'.'.'.'.'.'.'.'.'.'.'.'.'.'.'.'.'.'.'.'.'.'.'.A C N M b c l j g d s p u y e '.'.'.",
"'.'.'.'.k.h.f.s.i.t.r.w.0.9.6.3.2.,.>.'.'.'.'.'.'.'.'.'.'.'.'.'.'.'.'.'.'.'.'.'.'.'.'.'.'.'.C N M b c l j g d s p u y e w '.'.'.",
"'.'.'.'.h.f.s.i.y.e.w.0.9.6.3.2.<.:.;.'.'.'.'.'.'.'.'.'.'.'.'.'.'.'.'.'.'.'.'.'.'.'.'.'.'.'.N M b c l j g d s p u y e q 8 '.'.'.",
"'.'.'.'.d.s.i.t.r.w.0.9.6.3.2.<.:.-.=.'.'.'.'.'.'.'.'.'.'.'.'.'.'.'.'.'.'.'.'.'.'.'.'.'.'.'.M b c l j g d s p u y e q 9 6 '.'.'.",
"'.'.'.'.a.i.t.e.w.0.9.6.3.2.<.:.-.=.*.'.'.'.'.'.'.'.'.'.'.'.'.'.'.'.'.'.'.'.'.'.'.'.'.'.'.'.b c l j g d s p u y e q 0 7 3 '.'.'.",
"'.'.'.'.i.t.r.w.0.9.6.3.2.<.:.-.=.&.%.'.'.'.'.'.'.'.'.'.'.'.'.'.'.'.'.'.'.'.'.'.'.'.'.'.'.'.x l j g d s p u y e q 0 7 4 2 '.'.'.",
"'.'.'.'.y.e.w.0.9.6.3.2.<.:.-.=.&.%.$.'.'.'.'.'.'.'.'.'.'.'.'.'.'.'.'.'.'.'.'.'.'.'.'.'.'.'.l j g d s p u y e q 0 7 5 3 1 '.'.'.",
"'.'.'.'.r.w.0.9.6.3.2.<.:.-.=.&.%.#.@.'.'.'.'.'.'.'.'.'.'.'.'.'.'.'.'.'.'.'.'.'.'.'.'.'.'.'.j g d s p u y e q 0 7 5 3 < , '.'.'.",
"'.'.'.'.w.0.9.6.3.2.<.:.-.=.&.%.#.+.O.'.'.'.'.'.'.'.'.'.'.'.'.'.'.'.'.'.'.'.'.'.'.'.'.'.'.'.h d s p u y e q 0 7 5 3 < , > '.'.'.",
"'.'.'.'.0.9.6.3.2.<.:.-.=.&.%.#.+.X. .'.'.'.'.'.'.'.'.'.'.'.'.'.'.'.'.'.'.'.'.'.'.'.'.'.'.h d s p u y e q 0 7 5 3 < , : ; '.'.'.",
"'.'.'.'.8.6.3.2.<.:.-.=.&.%.#.+.X. .| { ] '.'.'.'.'.'.'.'.'.'.'.'.'.'.'.'.'.'.'.'.'.'.'.h d s p u y e q 0 7 5 3 < , : - & '.'.'.",
"'.'.'.'.6.3.2.<.:.-.=.&.%.#.+.X. .| { [ ` ) ( / ^ ! W E Y U L K J G D A C N M v c l j g d s p u y e q 0 7 5 3 < , : - * % '.'.'.",
"'.'.'.'.4.2.<.:.-.=.&.%.#.+.X. .| { [ ` ) ( / ^ ! W E Y U L K J G D A C N M v c l j g d s p u y e q 0 7 5 3 < , : - * % # '.'.'.",
"'.'.'.'.2.<.:.-.=.&.%.#.+.X. .| { [ ` ) ( / ^ ! W E Y U L K J G D A C N M b c l j g d s p u y e q 0 7 5 3 < , : - * % # @ '.'.'.",
"'.'.'.'.,.:.-.=.&.%.#.+.X. .| { [ ` ) ( / ^ ! W E Y U L K J G D A C N M b c l j g d s p u y e q 0 7 5 3 < , : - * % # @ + '.'.'.",
"'.'.'.'.:.-.=.&.%.#.+.X. .| { [ ` ) ( / ^ ! W E Y U L K J G D A C N M b c l j g d s p u y e q 0 7 5 3 < , : - * % # @ + o '.'.'.",
"'.'.'.'.-.=.&.%.#.+.X. .| { [ ` ) ( / ^ ! W R Y U L K J G D A C N M v c l j g d s p u y e q 0 7 5 3 < , : - * % # @ + X X '.'.'.",
"'.'.'.'.=.&.%.#.+.X. .| { [ ` ) ( / ^ ! W E Y U L K J G D A C N M b c l j g d s p u y e q 0 7 5 3 < , : - * % # @ + X . '.'.'.'.",
"'.'.'.'.&.%.#.+.X. .| { [ ` ) ( / ^ ! W E Y U L K J G D A C N M b c l j g d s p u y e q 0 7 5 3 < , : - * % # @ + X . . '.'.'.'.",
"'.'.'.'.'.#.+.X. .| { [ ` ) ( / ^ ! W E Y U L K J G D A C N M b c l j g d s p u y e q 0 7 5 3 < , : - * % # @ + X . . . '.'.'.'.",
"'.'.'.'.'.'.o. .| { [ ` ) ( / ~ ! W R Y U L K J G D A C N M v c l j g d s p u y e q 9 7 5 3 < , : - * % # @ + X . . . '.'.'.'.'.",
"'.'.'.'.'.'.'.'.} [ ' _ ( / ^ ! Q E T U P K J H F S Z B M n c z k h f s p i y r w 0 8 5 3 < , : - * % # @ + X . . . '.'.'.'.'.'.",
"'.'.'.'.'.'.'.'.'.'.'.'.'.'.'.'.'.'.'.'.'.'.'.'.'.'.'.'.'.'.'.'.'.'.'.'.'.'.'.'.'.'.'.'.'.'.; - * % # @ + X . . . '.'.'.'.'.'.'.",
"'.'.'.'.'.'.'.'.'.'.'.'.'.'.'.'.'.'.'.'.'.'.'.'.'.'.'.'.'.'.'.'.'.'.'.'.'.'.'.'.'.'.'.'.'.'.= * % # @ + X .   '.'.'.'.'.'.'.'.'.",
"'.'.'.'.'.'.'.'.'.'.'.'.'.'.'.'.'.'.'.'.'.'.'.'.'.'.'.'.'.'.'.'.'.'.'.'.'.'.'.'.'.'.'.'.'.'.* % # @ + X .   '.'.'.'.'.'.'.'.'.'.",
"'.'.'.'.'.'.'.'.'.'.'.'.'.'.'.'.'.'.'.'.'.'.'.'.'.'.'.'.'.'.'.'.'.'.'.'.'.'.'.'.'.'.'.'.'.'.$ # @ + X .   '.'.'.'.'.'.'.'.'.'.'.",
"'.'.'.'.'.'.'.'.'.'.'.'.'.'.'.'.'.'.'.'.'.'.'.'.'.'.'.'.'.'.'.'.'.'.'.'.'.'.'.'.'.'.'.'.'.'.# @ + X .   '.'.'.'.'.'.'.'.'.'.'.'.",
"'.'.'.'.'.'.'.'.'.'.'.'.'.'.'.'.'.'.'.'.'.'.'.'.'.'.'.'.'.'.'.'.'.'.'.'.'.'.'.'.'.'.'.'.'.'.@ + X . . '.'.'.'.'.'.'.'.'.'.'.'.'.",
"'.'.'.'.'.'.'.'.'.'.'.'.'.'.'.'.'.'.'.'.'.'.'.'.'.'.'.'.'.'.'.'.'.'.'.'.'.'.'.'.'.'.'.'.'.'.O X . . '.'.'.'.'.'.'.'.'.'.'.'.'.'.",
"'.'.'.'.'.'.'.'.'.'.'.'.'.'.'.'.'.'.'.'.'.'.'.'.'.'.'.'.'.'.'.'.'.'.'.'.'.'.'.'.'.'.'.'.'.'.X .   '.'.'.'.'.'.'.'.'.'.'.'.'.'.'.",
"'.'.'.'.'.'.'.'.'.'.'.'.'.'.'.'.'.'.'.'.'.'.'.'.'.'.'.'.'.'.'.'.'.'.'.'.'.'.'.'.'.'.'.'.'.'.    '.'.'.'.'.'.'.'.'.'.'.'.'.'.'.'.",
"'.'.'.'.'.'.'.'.'.'.'.'.'.'.'.'.'.'.'.'.'.'.'.'.'.'.'.'.'.'.'.'.'.'.'.'.'.'.'.'.'.'.'.'.'.'.  '.'.'.'.'.'.'.'.'.'.'.'.'.'.'.'.'.",
"'.'.'.'.'.'.'.'.'.'.'.'.'.'.'.'.'.'.'.'.'.'.'.'.'.'.'.'.'.'.'.'.'.'.'.'.'.'.'.'.'.'.'.'.'.'.'.'.'.'.'.'.'.'.'.'.'.'.'.'.'.'.'.'.",
"'.'.'.'.'.'.'.'.'.'.'.'.'.'.'.'.'.'.'.'.'.'.'.'.'.'.'.'.'.'.'.'.'.'.'.'.'.'.'.'.'.'.'.'.'.'.'.'.'.'.'.'.'.'.'.'.'.'.'.'.'.'.'.'."
};
