/* XPM */
static char *helium16[] = {
/* columns rows colors chars-per-pixel */
"16 16 81 1 ",
"  c #000DFF",
". c #000EFF",
"X c #0010FF",
"o c #0014FF",
"O c #001CFF",
"+ c #001EFF",
"@ c #001FFF",
"# c #0029FF",
"$ c #002AFF",
"% c #0034FF",
"& c #0035FF",
"* c #003EFF",
"= c #003FFF",
"- c #0040FF",
"; c #0047FF",
": c #0048FF",
"> c #0049FF",
", c #004AFF",
"< c #004BFF",
"1 c #0052FF",
"2 c #0053FF",
"3 c #0054FF",
"4 c #0055FF",
"5 c #005CFF",
"6 c #005EFF",
"7 c #005FFF",
"8 c #0060FF",
"9 c #0067FF",
"0 c #0068FF",
"q c #006AFF",
"w c #006BFF",
"e c #0072FF",
"r c #0073FF",
"t c #0074FF",
"y c #0075FF",
"u c #007CFF",
"i c #007EFF",
"p c #007FFF",
"a c #0080FF",
"s c #0089FF",
"d c #008AFF",
"f c #008BFF",
"g c #0091FF",
"h c #0094FF",
"j c #0095FF",
"k c #0096FF",
"l c #009BFF",
"z c #009EFF",
"x c #009FFF",
"c c #00A1FF",
"v c #00A6FF",
"b c #00A9FF",
"n c #00AAFF",
"m c #00ACFF",
"M c #00B0FF",
"N c #00B3FF",
"B c #00B4FF",
"V c #00B6FF",
"C c #00BAFF",
"Z c #00BCFF",
"A c #00BDFF",
"S c #00BFFF",
"D c #00C3FF",
"F c #00C6FF",
"G c #00C8FF",
"H c #00CCFF",
"J c #00CFFF",
"K c #00D0FF",
"L c #00D1FF",
"P c #00D5FF",
"I c #00D8FF",
"U c #00DEFF",
"Y c #00E1FF",
"T c #00E7FF",
"R c #00EAFF",
"E c #00EFFF",
"W c #00F1FF",
"Q c #00F2FF",
"! c #00F5FF",
"~ c #00F7FF",
"^ c None",
/* pixels */
"^^!ETUPHDCMvlg^^",
"^~QRYIKFABnxhdp^",
"^WRYIJFANnxhdpy^",
"^RYIL^^^^^^sptq^",
"^YIJG^^^^^^utq7^",
"^IKFS^^^^^^eq74^",
"^JFAV^^^^^^973,^",
"^FANm^^^^^^53>=^",
"^ZBbc^^^^^^1,=%^",
"^Nnxk^^^^^^;=%$^",
"^bxhdir062:*%#@^",
"^zhsptq73>=%#+o^",
"^jfayw84<-&#+o ^",
"^^^^^^^^^^^Oo ^^",
"^^^^^^^^^^^X.^^^",
"^^^^^^^^^^^^^^^^"
};
