/* XPM */
static char *helium32[] = {
/* columns rows colors chars-per-pixel */
"32 32 107 2 ",
"   c #000CFF",
".  c #000EFF",
"X  c #0013FF",
"o  c #0014FF",
"O  c #0018FF",
"+  c #0019FF",
"@  c #001EFF",
"#  c #0024FF",
"$  c #0029FF",
"%  c #002FFF",
"&  c #0030FF",
"*  c #0034FF",
"=  c #0035FF",
"-  c #0039FF",
";  c #003AFF",
":  c #003FFF",
">  c #0040FF",
",  c #0044FF",
"<  c #0045FF",
"1  c #0049FF",
"2  c #004AFF",
"3  c #004EFF",
"4  c #004FFF",
"5  c #0050FF",
"6  c #0053FF",
"7  c #0054FF",
"8  c #0055FF",
"9  c #0059FF",
"0  c #005AFF",
"q  c #005EFF",
"w  c #005FFF",
"e  c #0060FF",
"r  c #0064FF",
"t  c #0065FF",
"y  c #0069FF",
"u  c #006AFF",
"i  c #006BFF",
"p  c #006EFF",
"a  c #006FFF",
"s  c #0070FF",
"d  c #0073FF",
"f  c #0074FF",
"g  c #0075FF",
"h  c #0079FF",
"j  c #007AFF",
"k  c #007EFF",
"l  c #007FFF",
"z  c #0080FF",
"x  c #0083FF",
"c  c #0084FF",
"v  c #0085FF",
"b  c #0089FF",
"n  c #008AFF",
"m  c #008BFF",
"M  c #008FFF",
"N  c #0090FF",
"B  c #0094FF",
"V  c #0096FF",
"C  c #0099FF",
"Z  c #009AFF",
"A  c #009BFF",
"S  c #009EFF",
"D  c #009FFF",
"F  c #00A0FF",
"G  c #00A4FF",
"H  c #00A5FF",
"J  c #00A9FF",
"K  c #00AAFF",
"L  c #00ABFF",
"P  c #00AEFF",
"I  c #00AFFF",
"U  c #00B0FF",
"Y  c #00B3FF",
"T  c #00B4FF",
"R  c #00B5FF",
"E  c #00B8FF",
"W  c #00B9FF",
"Q  c #00BCFF",
"!  c #00BDFF",
"~  c #00BEFF",
"^  c #00C1FF",
"/  c #00C2FF",
"(  c #00C3FF",
")  c #00C6FF",
"_  c #00C7FF",
"`  c #00CAFF",
"'  c #00CBFF",
"]  c #00CCFF",
"[  c #00CFFF",
"{  c #00D0FF",
"}  c #00D4FF",
"|  c #00D8FF",
" . c #00DCFF",
".. c #00DDFF",
"X. c #00E1FF",
"o. c #00E5FF",
"O. c #00E6FF",
"+. c #00EAFF",
"@. c #00EDFF",
"#. c #00EEFF",
"$. c #00F1FF",
"%. c #00F4FF",
"&. c #00F5FF",
"*. c #00F7FF",
"=. c #00F8FF",
"-. c #00F9FF",
";. c None",
/* pixels */
";.;.;.;.;.;.;.;.;.;.;.;.;.;.;.;.;.;.;.;.;.;.;.;.;.;.;.;.;.;.;.;.",
";.;.;.-.*.%.$.@.+.o.X. .| } [ ` ) ^ Q E Y P J G S C B M b ;.;.;.",
";.;.-.=.&.$.#.+.O.X...| } { ' ) / ! E T I K G D Z B M n c l ;.;.",
";.;.=.&.$.#.+.O.X...| } { ' ) / ! E T I K G D Z B M n c l j ;.;.",
";.;.&.$.#.+.O.X...| } { ' ) / ! E T I K G D Z B M n c l j f ;.;.",
";.;.$.#.+.O.X...| } { ' ) / ! E Y I K G D Z B M n c l j f a ;.;.",
";.;.@.+.O.X...| } { ] _ ( ~ W R U L H F A V M n c l j f a u ;.;.",
";.;.+.O.X...| } { ] ;.;.;.;.;.;.;.;.;.;.;.;.;.c l j f a u r ;.;.",
";.;.O.X...| } { ' ;.;.;.;.;.;.;.;.;.;.;.;.;.;.l j f a u r w ;.;.",
";.;.X...| } { ' ) ;.;.;.;.;.;.;.;.;.;.;.;.;.;.j f a u r w 0 ;.;.",
";.;. .| } { ' ) / ;.;.;.;.;.;.;.;.;.;.;.;.;.;.f a u r w 0 7 ;.;.",
";.;.| } { ' ) / ! ;.;.;.;.;.;.;.;.;.;.;.;.;.;.a u r w 0 7 4 ;.;.",
";.;.} { ' ) / ! E ;.;.;.;.;.;.;.;.;.;.;.;.;.;.u r w 0 7 4 2 ;.;.",
";.;.[ ' ) / ! E Y ;.;.;.;.;.;.;.;.;.;.;.;.;.;.r w 0 7 4 1 , ;.;.",
";.;.` ) / ! E T I ;.;.;.;.;.;.;.;.;.;.;.;.;.;.w 0 7 4 1 , : ;.;.",
";.;.) / ! E T I K ;.;.;.;.;.;.;.;.;.;.;.;.;.;.9 7 4 1 , : - ;.;.",
";.;.^ ! E T I K G ;.;.;.;.;.;.;.;.;.;.;.;.;.;.7 4 1 , : - * ;.;.",
";.;.Q E T I K G D ;.;.;.;.;.;.;.;.;.;.;.;.;.;.4 2 , : - * % ;.;.",
";.;.E T I K G D Z ;.;.;.;.;.;.;.;.;.;.;.;.;.;.1 , : - * % $ ;.;.",
";.;.Y I K G D Z B N ;.;.;.;.;.;.;.;.;.;.;.;.;., : - * % $ # ;.;.",
";.;.I K G D Z B M n x k h d p y r q 9 6 3 1 , : - * % $ # @ ;.;.",
";.;.K G D Z B M n c l j f a u t w 0 7 4 2 , : - * % $ # @ + ;.;.",
";.;.G D Z B M n c l j f a u r w 0 7 4 2 , : - * % $ # @ + o ;.;.",
";.;.S Z B M n c l j f a u r w 0 7 4 1 , : - * % $ # @ + o . ;.;.",
";.;.C B M n c l j f a u r w 0 7 4 1 , : - * % $ # @ + o .   ;.;.",
";.;.;.N m v z j g s i t e 0 8 5 2 < > ; = & $ # @ + o .   ;.;.;.",
";.;.;.;.;.;.;.;.;.;.;.;.;.;.;.;.;.;.;.;.;.;.;.@ + o .   ;.;.;.;.",
";.;.;.;.;.;.;.;.;.;.;.;.;.;.;.;.;.;.;.;.;.;.;.O o .   ;.;.;.;.;.",
";.;.;.;.;.;.;.;.;.;.;.;.;.;.;.;.;.;.;.;.;.;.;.X .   ;.;.;.;.;.;.",
";.;.;.;.;.;.;.;.;.;.;.;.;.;.;.;.;.;.;.;.;.;.;..   ;.;.;.;.;.;.;.",
";.;.;.;.;.;.;.;.;.;.;.;.;.;.;.;.;.;.;.;.;.;.;.  ;.;.;.;.;.;.;.;.",
";.;.;.;.;.;.;.;.;.;.;.;.;.;.;.;.;.;.;.;.;.;.;.;.;.;.;.;.;.;.;.;."
};
