<svg id="svg" version="1.1" xmlns="http://www.w3.org/2000/svg" xmlns:xlink="http://www.w3.org/1999/xlink" width="400" height="481.283422459893" viewBox="0, 0, 400,481.283422459893"><g id="svgg"><path id="path0" d="M50.537 55.223 C 50.304 55.456,49.053 55.751,47.757 55.879 C 45.330 56.119,42.935 57.073,42.033 58.160 C 41.751 58.500,40.923 58.891,40.194 59.027 C 39.466 59.164,38.522 59.600,38.097 59.995 C 37.672 60.391,36.798 60.988,36.153 61.321 C 34.026 62.421,28.000 69.814,28.000 71.325 C 28.000 71.839,27.550 72.683,27.000 73.200 C 26.450 73.717,25.999 74.513,25.998 74.970 C 25.996 75.426,25.726 76.316,25.398 76.946 C 25.022 77.666,24.798 79.225,24.794 81.146 C 24.791 82.826,24.529 84.920,24.212 85.800 C 23.321 88.272,23.310 329.207,24.200 331.338 C 24.584 332.256,24.800 334.082,24.800 336.400 C 24.800 339.476,24.952 340.326,25.801 342.001 C 26.351 343.088,27.090 344.837,27.442 345.888 C 28.144 347.983,29.087 349.366,31.477 351.800 C 32.341 352.680,33.164 353.707,33.305 354.083 C 33.446 354.459,34.248 355.199,35.087 355.729 C 35.926 356.258,36.856 356.986,37.155 357.346 C 37.454 357.706,37.932 358.000,38.218 358.000 C 38.504 358.000,39.247 358.424,39.869 358.941 C 41.608 360.389,44.984 361.718,50.600 363.168 C 51.682 363.447,89.725 363.584,168.086 363.590 C 282.244 363.600,283.978 363.612,284.386 364.374 C 284.662 364.889,284.800 375.956,284.800 397.477 C 284.800 429.497,284.808 429.812,285.609 430.313 C 286.879 431.106,289.676 429.044,295.803 422.800 C 296.127 422.470,297.570 421.120,299.010 419.800 C 300.450 418.480,304.007 415.083,306.914 412.250 C 309.821 409.418,312.696 406.791,313.303 406.413 C 313.910 406.034,317.904 402.277,322.178 398.062 C 326.452 393.848,330.170 390.400,330.439 390.400 C 330.709 390.400,335.093 386.260,340.183 381.200 C 345.272 376.140,349.627 372.000,349.859 372.000 C 350.091 372.000,353.413 368.941,357.240 365.202 C 361.068 361.463,364.343 358.403,364.517 358.402 C 365.089 358.398,368.821 354.684,369.982 352.965 C 370.606 352.040,371.415 350.950,371.779 350.542 C 372.853 349.338,375.200 345.657,375.200 345.174 C 375.200 344.930,375.740 343.563,376.400 342.137 C 377.060 340.711,377.600 339.207,377.600 338.796 C 377.600 338.384,377.780 337.936,378.000 337.800 C 378.265 337.636,378.400 294.454,378.400 209.552 C 378.400 68.909,378.583 79.669,376.132 76.007 C 375.619 75.241,375.200 74.057,375.200 73.377 C 375.200 72.574,374.849 71.809,374.200 71.200 C 373.650 70.683,373.200 70.047,373.200 69.787 C 373.200 69.526,372.480 68.495,371.600 67.495 C 370.720 66.495,370.000 65.506,370.000 65.297 C 370.000 64.758,366.480 61.200,365.947 61.200 C 365.704 61.200,364.891 60.660,364.139 60.000 C 363.387 59.340,362.529 58.800,362.231 58.800 C 361.933 58.800,360.774 58.170,359.655 57.400 C 357.962 56.236,357.264 56.000,355.510 55.998 C 354.349 55.996,352.884 55.726,352.254 55.398 C 350.810 54.645,51.289 54.471,50.537 55.223 M179.200 123.101 C 226.330 122.726,268.002 122.862,269.566 123.395 C 270.543 123.728,271.715 124.002,272.171 124.005 C 273.882 124.016,281.011 128.100,281.418 129.302 C 281.548 129.688,282.069 130.498,282.574 131.102 C 284.910 133.895,284.800 130.066,284.800 208.556 C 284.800 254.247,284.657 281.009,284.406 282.094 C 284.190 283.032,283.922 284.272,283.812 284.848 C 283.610 285.899,278.811 291.200,278.061 291.200 C 277.841 291.200,277.115 291.660,276.447 292.221 C 275.780 292.783,274.281 293.448,273.117 293.698 C 269.934 294.381,133.030 294.626,130.000 293.954 C 126.950 293.277,122.522 290.873,121.601 289.393 C 121.188 288.729,120.391 287.756,119.831 287.229 C 119.271 286.703,118.699 285.669,118.561 284.932 C 118.422 284.194,118.150 283.493,117.955 283.372 C 117.760 283.251,117.600 282.375,117.600 281.425 C 117.600 280.475,117.330 279.051,117.000 278.262 C 116.475 277.004,116.400 268.340,116.400 208.600 C 116.400 148.860,116.475 140.196,117.000 138.938 C 117.330 138.149,117.600 137.153,117.600 136.726 C 117.600 135.265,118.915 131.800,119.858 130.778 C 120.376 130.216,120.800 129.547,120.800 129.292 C 120.800 129.037,121.205 128.619,121.700 128.364 C 122.195 128.109,122.984 127.551,123.453 127.124 C 124.564 126.115,129.025 124.009,130.136 123.970 C 130.611 123.953,131.630 123.694,132.400 123.395 C 133.536 122.953,138.029 122.875,156.200 122.978 C 168.520 123.048,178.870 123.104,179.200 123.101 " stroke="none" fill="#050dfc" fill-rule="evenodd"></path><path id="path1" d="M0.000 240.600 L 0.000 481.200 200.000 481.200 L 400.000 481.200 400.000 240.600 L 400.000 0.000 200.000 0.000 L 0.000 0.000 0.000 240.600 M352.254 55.398 C 352.884 55.726,354.349 55.996,355.510 55.998 C 357.264 56.000,357.962 56.236,359.655 57.400 C 360.774 58.170,361.933 58.800,362.231 58.800 C 362.529 58.800,363.387 59.340,364.139 60.000 C 364.891 60.660,365.704 61.200,365.947 61.200 C 366.480 61.200,370.000 64.758,370.000 65.297 C 370.000 65.506,370.720 66.495,371.600 67.495 C 372.480 68.495,373.200 69.526,373.200 69.787 C 373.200 70.047,373.650 70.683,374.200 71.200 C 374.849 71.809,375.200 72.574,375.200 73.377 C 375.200 74.057,375.619 75.241,376.132 76.007 C 378.583 79.669,378.400 68.909,378.400 209.552 C 378.400 294.454,378.265 337.636,378.000 337.800 C 377.780 337.936,377.600 338.384,377.600 338.796 C 377.600 339.207,377.060 340.711,376.400 342.137 C 375.740 343.563,375.200 344.930,375.200 345.174 C 375.200 345.657,372.853 349.338,371.779 350.542 C 371.415 350.950,370.606 352.040,369.982 352.965 C 368.821 354.684,365.089 358.398,364.517 358.402 C 364.343 358.403,361.068 361.463,357.240 365.202 C 353.413 368.941,350.091 372.000,349.859 372.000 C 349.627 372.000,345.272 376.140,340.183 381.200 C 335.093 386.260,330.709 390.400,330.439 390.400 C 330.170 390.400,326.452 393.848,322.178 398.062 C 317.904 402.277,313.910 406.034,313.303 406.413 C 312.696 406.791,309.821 409.418,306.914 412.250 C 304.007 415.083,300.450 418.480,299.010 419.800 C 297.570 421.120,296.127 422.470,295.803 422.800 C 289.676 429.044,286.879 431.106,285.609 430.313 C 284.808 429.812,284.800 429.497,284.800 397.477 C 284.800 375.956,284.662 364.889,284.386 364.374 C 283.978 363.612,282.244 363.600,168.086 363.590 C 89.725 363.584,51.682 363.447,50.600 363.168 C 44.984 361.718,41.608 360.389,39.869 358.941 C 39.247 358.424,38.504 358.000,38.218 358.000 C 37.932 358.000,37.454 357.706,37.155 357.346 C 36.856 356.986,35.926 356.258,35.087 355.729 C 34.248 355.199,33.446 354.459,33.305 354.083 C 33.164 353.707,32.341 352.680,31.477 351.800 C 29.087 349.366,28.144 347.983,27.442 345.888 C 27.090 344.837,26.351 343.088,25.801 342.001 C 24.952 340.326,24.800 339.476,24.800 336.400 C 24.800 334.082,24.584 332.256,24.200 331.338 C 23.310 329.207,23.321 88.272,24.212 85.800 C 24.529 84.920,24.791 82.826,24.794 81.146 C 24.798 79.225,25.022 77.666,25.398 76.946 C 25.726 76.316,25.996 75.426,25.998 74.970 C 25.999 74.513,26.450 73.717,27.000 73.200 C 27.550 72.683,28.000 71.839,28.000 71.325 C 28.000 69.814,34.026 62.421,36.153 61.321 C 36.798 60.988,37.672 60.391,38.097 59.995 C 38.522 59.600,39.466 59.164,40.194 59.027 C 40.923 58.891,41.751 58.500,42.033 58.160 C 42.935 57.073,45.330 56.119,47.757 55.879 C 49.053 55.751,50.304 55.456,50.537 55.223 C 51.289 54.471,350.810 54.645,352.254 55.398 M132.400 123.395 C 131.630 123.694,130.611 123.953,130.136 123.970 C 129.025 124.009,124.564 126.115,123.453 127.124 C 122.984 127.551,122.195 128.109,121.700 128.364 C 121.205 128.619,120.800 129.037,120.800 129.292 C 120.800 129.547,120.376 130.216,119.858 130.778 C 118.915 131.800,117.600 135.265,117.600 136.726 C 117.600 137.153,117.330 138.149,117.000 138.938 C 116.091 141.114,116.091 276.086,117.000 278.262 C 117.330 279.051,117.600 280.475,117.600 281.425 C 117.600 282.375,117.760 283.251,117.955 283.372 C 118.150 283.493,118.422 284.194,118.561 284.932 C 118.699 285.669,119.271 286.703,119.831 287.229 C 120.391 287.756,121.188 288.729,121.601 289.393 C 122.522 290.873,126.950 293.277,130.000 293.954 C 133.030 294.626,269.934 294.381,273.117 293.698 C 274.281 293.448,275.780 292.783,276.447 292.221 C 277.115 291.660,277.841 291.200,278.061 291.200 C 278.811 291.200,283.610 285.899,283.812 284.848 C 283.922 284.272,284.190 283.032,284.406 282.094 C 284.657 281.009,284.800 254.247,284.800 208.556 C 284.800 130.066,284.910 133.895,282.574 131.102 C 282.069 130.498,281.548 129.688,281.418 129.302 C 281.011 128.100,273.882 124.016,272.171 124.005 C 271.715 124.002,270.543 123.728,269.566 123.395 C 268.002 122.862,226.330 122.726,179.200 123.101 C 178.870 123.104,168.520 123.048,156.200 122.978 C 138.029 122.875,133.536 122.953,132.400 123.395 " stroke="none" fill="#fcfcfc" fill-rule="evenodd"></path></g></svg>