<svg xmlns="http://www.w3.org/2000/svg" xmlns:xlink="http://www.w3.org/1999/xlink" viewBox="0 0 976.97 143.38"><defs><style>.cls-1{fill:url(#linear-gradient);}.cls-2{fill:#00003f;}</style><linearGradient id="linear-gradient" x1="132.35" y1="0.65" x2="249.82" y2="118.12" gradientUnits="userSpaceOnUse"><stop offset="0" stop-color="aqua"/><stop offset="0.12" stop-color="#00eaff"/><stop offset="0.36" stop-color="#00b3ff"/><stop offset="0.69" stop-color="#005bff"/><stop offset="1" stop-color="#0007ff"/><stop offset="1" stop-color="blue"/></linearGradient></defs><title>Asset 1</title><g id="Layer_2" data-name="Layer 2"><g id="Layer_1-2" data-name="Layer 1"><path class="cls-1" d="M124.58,13.38v92a12,12,0,0,0,12,12h86v26s29.31-27.34,31.49-29.51a12,12,0,0,0,3.51-8.49v-92a12,12,0,0,0-12-12h-109A12,12,0,0,0,124.58,13.38Zm92,78h-51a6,6,0,0,1-6-6v-52a6,6,0,0,1,6-6h51a6,6,0,0,1,6,6v52A6,6,0,0,1,216.58,91.38Z"/><path class="cls-2" d="M0,109.51,11.06,79.58c6.19,5.19,21.27,13.5,43.55,13.5C71.2,93.08,79.07,91,79.07,82.7c0-8-11.22-7.1-37-10.21C20.44,69.38,4.69,64.36,4.69,40.14,4.69,17.47,23.12,1.38,58.8,1.38c16.42,0,33,3,46.24,8.48L95.15,37c-9-4.32-23.62-7.61-37-7.78-17.59,0-23.29,2.59-23.29,9.17,0,7.09,5.87,6.4,30,9.17,23.62,3.11,43.89,6.57,43.89,33.56,0,29.07-24.12,39.44-52.1,39.44C33.84,120.58,14.07,115.74,0,109.51Z"/><path class="cls-2" d="M397.78,65.57c0,33-18.43,54-59.81,54-40.37,0-59.47-19.73-59.47-54V1.38h35v65.4c0,14.71,6.2,24.57,24.63,24.57,17.25,0,24.62-10.21,24.62-25.26V1.38h35Z"/><path class="cls-2" d="M542.6,58.3v3.12c0,35.81-26,58.13-64.84,58.13-38.19,0-64.83-22.32-64.83-58.31V58.13C412.93,22.32,438.06,0,477.43,0,517,0,542.6,21.28,542.6,58.3Zm-95.83-.69V60.9c0,19.2,11.56,31.14,31,31.14,19.94,0,31-12.11,31-31.32V57.44c0-19.38-11.39-29.93-31.33-29.93C458.5,27.51,446.77,37.71,446.77,57.61Z"/><path class="cls-2" d="M613.18,82.35H591.24v35.81H559.41V1.38H628.6c28.31,0,45.06,14.71,45.06,40v.86c0,18.69-10.22,32.36-28,37.54l32.5,38.41H640.66ZM591.24,55.71h34c11.39,0,16.08-4.85,16.08-13.67v-.87c0-9-6.2-12.62-15.25-12.62H591.24Z"/><path class="cls-2" d="M808.8,65.57c0,33-18.43,54-59.81,54-40.37,0-59.47-19.73-59.47-54V1.38h35v65.4c0,14.71,6.2,24.57,24.63,24.57,17.25,0,24.62-10.21,24.62-25.26V1.38h35Z"/><path class="cls-2" d="M977,1.38V118.16h-31.5V45.5L908.62,95.84H898.07l-36.86-50v72.31h-31.5V1.38h31.16L903.43,58,946.15,1.38Z"/></g></g></svg>